<?xml version="1.0" encoding="UTF-8"?>
<svg id="Object" xmlns="http://www.w3.org/2000/svg" version="1.1" viewBox="0 0 498 620.5">
  <!-- Generator: Adobe Illustrator 30.0.0, SVG Export Plug-In . SVG Version: 2.1.1 Build 123)  -->
  <defs>
    <style>
      .st0 {
        fill: none;
      }

      .st1 {
        fill: #aad4c8;
      }

      .st2 {
        fill: #fff;
      }

      .st3 {
        fill: #616e7d;
      }
    </style>
  </defs>
  <path class="st0" d="M377.1,273.7s-126.8,29.3-173,32.6c-1.3,0-2.6.1-3.8.2-1.7,5.2-3.1,10.5-3.9,15.9-.8,5.3-1.4,10.6-1.4,16.1s.2,7.8.7,11.6c.7,6.5,2.1,12.9,4,19,14,44.8,57.8,77.5,109.5,77.5s95.5-32.8,109.5-77.5c1.9-6.1,3.3-12.5,4-19,.4-3.8.7-7.7.7-11.6s-.6-10.9-1.4-16.1c-.4-2.5-1-4.8-1.5-7.2-15.7-11-35.8-28-43.4-41.5Z"/>
  <path class="st0" d="M237.4,450.2h9.6,0s-9.5,0-9.5,0c0,0,0,0-.1,0Z"/>
  <path class="st0" d="M177.5,318.2c-5.7,1.5-12.3,6.9-12.3,12.7v10c0,6.4,5,11.7,11.5,12.6-.6-4.9-1-9.9-1-14.9s.4-9.7,1.1-14.4q.2-2.4.7-6Z"/>
  <path class="st0" d="M371.4,450.2h9.6s0,0,0,0h-9.5Z"/>
  <path class="st0" d="M109.6,91.4c-23.2,14.3-31.2,45.6-17.8,69.3,14.3,25.2,46.4,33.8,71.3,19.1,24.5-14.5,32.7-46.2,18.2-70.8-14.7-24.8-47-32.9-71.7-17.6Z"/>
  <path class="st0" d="M453.2,340.9v-10c0-6.3-4.9-11.4-11.2-12.4.4,5.1.5,10,.4,14.8.1,1.8.3,3.5.3,5.3,0,5-.4,10-1,14.9,6.5-.9,11.6-6.2,11.6-12.6Z"/>
  <path class="st0" d="M228.3,450.7c2.9-.2,5.9-.4,8.9-.4-3,0-5.9.2-8.9.4Z"/>
  <path class="st1" d="M82.9,262.3l16.3-17.2c5.9,2,11.9,3.6,18,4.6l6,23c7.5.7,15.1.8,22.8.3,5.9-35.3,22.3-66.8,45.6-90.5,7.2-7.4,15.1-14,23.6-19.8,17.3-11.8,37-20,58-23.7.1-6.2-.1-12.4-.9-18.6l-23-5.5c-1.2-6-2.9-12.1-5.1-18l16.9-16.7c-2-4.5-4.3-8.9-6.9-13.2-2.5-4.3-5.3-8.4-8.2-12.4l-22.7,6.8c-4.1-4.8-8.6-9.1-13.3-13.1l6.3-22.8c-8.1-5.8-16.8-10.7-25.9-14.6l-16.3,17.3c-5.9-2-11.9-3.6-18-4.6l-6-23c-9.8-1-19.8-.9-29.6.3l-5.5,23c-6.1,1.2-12,2.9-17.9,5.1l-16.7-16.9c-4.4,2-8.9,4.3-13.2,6.8-4.3,2.5-8.4,5.3-12.3,8.2l6.8,22.8c-4.8,4.1-9.1,8.6-13.1,13.3l-22.8-6.3c-5.8,8.1-10.7,16.8-14.6,25.8l17.3,16.3c-2,5.9-3.6,11.9-4.6,18L.7,123.3c-1,9.8-.9,19.8.3,29.7l23,5.5c1.2,6.1,2.9,12.1,5,18l-16.9,16.6c2,4.5,4.3,8.9,6.8,13.2,2.6,4.3,5.3,8.4,8.2,12.4l22.8-6.8c4.1,4.7,8.6,9.1,13.3,13.1l-6.3,22.8c8.1,5.8,16.8,10.7,25.8,14.5ZM109.6,91.4c24.7-15.3,56.9-7.2,71.7,17.6,14.5,24.5,6.4,56.2-18.2,70.8-24.9,14.7-57,6.2-71.3-19.1-13.4-23.7-5.4-55,17.8-69.3Z"/>
  <path class="st3" d="M120.5,564.8v55.6h377.5v-55.6c0-29.4-11.3-56.1-29.9-76.3,12.3-5.2,20.1-9.9,20.8-10.4,1.1-.6,1.7-1.8,1.6-3,0-1.2-.8-2.2-2-2.8-.4-.2-31.3-15-39.5-35,10.8,9.9,23.7,13.9,40.6,16.8,1.3.2,2.6-.2,3.5-1.2.8-.9,1.1-2.2.5-3.4-11.3-25.4-23.6-57.4-30.5-87.3,1.5-1.5,3-3.1,4.1-4.9,3.3-4.8,5.2-10.5,5.2-16.6v-10c0-8.4-3.6-16-9.5-21.5-1.2-90.5-70.1-163.4-155-163.4s-17.1.8-25.4,2.3c-21.1,3.7-40.7,11.9-58,23.7-9.2,5.2-16.9,11.8-23.5,19.7,0,0,0,0,0,0-23.3,23.8-39.7,55.2-45.6,90.5-1.6,9.6-2.5,19.4-2.5,29.5v.2c-4.3,5.2-6.9,11.8-6.9,18.9v10c0,10.3,5.4,19.3,13.6,25,2.5,34.5,9.8,71.7,17.5,100.9-33.8,20.1-56.5,56.4-56.5,98ZM384.4,476.6c-1.7,3.1-40.7,38.4-40.7,38.4l26.2,25.3-60.7,65.8-60.7-65.8,26.2-25.3s-38.9-35.3-40.7-38.4c-3.1-5.4,24-23.7,24-23.7l51.2,153.1,51.2-153.1s27.1,18.2,24,23.7ZM228.3,450.7c2.9-.2,5.9-.4,8.9-.4-3,0-5.9.2-8.9.4ZM237.4,450.2s0,0,.1,0h9.5s-9.6,0-9.6,0ZM275.4,491l67.7-.5-33.7,100.2h-.9l-33-99.6ZM371.4,450.2h0s9.5,0,9.5,0c0,0,0,0,0,0h-9.5ZM442.4,333.3c.1-4.8,0-9.7-.4-14.8,6.3,1,11.2,6.2,11.2,12.4v10c0,6.4-5,11.7-11.6,12.6.6-4.9,1-9.9,1-14.9s-.2-3.5-.3-5.3ZM196.4,322.4c.9-5.5,2.2-10.8,3.9-15.9,1.2,0,2.4,0,3.8-.2,46.2-3.3,173-32.6,173-32.6,7.7,13.4,27.8,30.5,43.4,41.5.5,2.4,1.1,4.8,1.5,7.2.8,5.3,1.4,10.6,1.4,16.1s-.3,7.8-.7,11.6c-.7,6.5-2.1,12.9-4,19-14,44.7-57.8,77.5-109.5,77.5s-95.5-32.8-109.5-77.5c-1.9-6.1-3.3-12.5-4-19-.4-3.8-.7-7.7-.7-11.6s.6-10.9,1.4-16.1ZM176.8,324.2c-.6,4.7-1.1,9.5-1.1,14.4s.4,10,1,14.9c-6.5-.9-11.5-6.2-11.5-12.6v-10c0-5.9,6.6-11.3,12.3-12.7q-.5,3.5-.7,6Z"/>
  <polygon class="st1" points="309.4 590.7 343.2 490.5 275.4 491 308.5 590.7 309.4 590.7"/>
  <path class="st2" d="M384.4,476.6c3.1-5.4-24-23.7-24-23.7l-51.2,153.1,60.7-65.8-26.2-25.3s38.9-35.3,40.7-38.4Z"/>
  <path class="st2" d="M309.3,606l-51.2-153.1s-27.1,18.2-24,23.7c1.7,3.1,40.7,38.4,40.7,38.4l-26.2,25.3,60.7,65.8Z"/>
</svg>