<?xml version="1.0" encoding="UTF-8"?>
<svg id="Object" xmlns="http://www.w3.org/2000/svg" xmlns:xlink="http://www.w3.org/1999/xlink" version="1.1" viewBox="0 0 872.2 860.5">
  <!-- Generator: Adobe Illustrator 30.0.0, SVG Export Plug-In . SVG Version: 2.1.1 Build 123)  -->
  <defs>
    <style>
      .st0 {
        fill-rule: evenodd;
      }

      .st0, .st1 {
        fill: #fff;
      }

      .st2 {
        fill: url(#linear-gradient);
      }
    </style>
    <linearGradient id="linear-gradient" x1="0" y1="430.3" x2="872.2" y2="430.3" gradientUnits="userSpaceOnUse">
      <stop offset="0" stop-color="#957152"/>
      <stop offset="1" stop-color="#e0ba9b"/>
    </linearGradient>
  </defs>
  <path class="st2" d="M377.4,298.5h-52.3c-52.3,0-82.1,15.4-94.4,48.3h-2.2l6.6-65.9h212.2l-153.3,281.1h61.1c48.8,0,79.9-17.6,94.4-52.7h2.2l-4.4,70.3h-223.1l153.3-281.1ZM10.7,620.7v238.8l861.4,1L870.2,0H10.7s0,555.4,0,555.4c-.8,10.5-4.1,16.8-10.7,22v2.2h182.7l4.4-70.3h-2.2c-14.5,35.1-45.7,52.7-94.4,52.7h-26.8l-.2-37-1.2-473.4h759.1v759.1H62.3v-190H10.7Z"/>
  <g>
    <path class="st0" d="M697,124.3h53c1.9-6,5-11.5,8.9-16.3h-70.7c3.9,4.8,6.9,10.3,8.9,16.3"/>
    <polygon class="st0" points="731.7 140.6 731.7 798.9 748 788.6 748 140.6 731.7 140.6"/>
    <polygon class="st0" points="715.4 798.9 715.4 140.6 699.1 140.6 699.1 788.6 715.4 798.9"/>
    <rect class="st1" x="650" y="75.4" width="151.3" height="16.3"/>
  </g>
</svg>
