<?xml version="1.0" encoding="UTF-8"?>
<svg id="Layer_1" xmlns="http://www.w3.org/2000/svg" xmlns:xlink="http://www.w3.org/1999/xlink" version="1.1" viewBox="0 0 484.7 351.5">
  <!-- Generator: Adobe Illustrator 30.0.0, SVG Export Plug-In . SVG Version: 2.1.1 Build 123)  -->
  <defs>
    <style>
      .st0 {
        fill: url(#linear-gradient);
      }

      .st1 {
        fill: #fff;
      }
    </style>
    <linearGradient id="linear-gradient" x1="0" y1="175.8" x2="484.7" y2="175.8" gradientUnits="userSpaceOnUse">
      <stop offset=".4" stop-color="#b18847"/>
      <stop offset=".7" stop-color="#e5c880"/>
    </linearGradient>
  </defs>
  <path class="st0" d="M462.1,208.5l-41.3-138.9c3.2-1.2,6-3.4,7.9-6.4,3.4,1.2,6.7,2.4,10,3.6l1.5-3.3c-47-26.5-109.9-43.7-179.6-46.2l-3.7,53.8c-2.3-.3-4.6-.7-6.9-1l4.6-65.8-12.1-4.3-12.1,4.3,4.6,65.8c-2.3.4-4.6.7-6.9,1l-3.7-53.8c-69.7,2.6-132.6,19.7-179.6,46.2l1.5,3.3c3.3-1.2,6.6-2.4,10-3.6,1.9,3,4.7,5.2,7.9,6.4L22.7,208.5c-7.7.4-15.2.9-22.7,1.5,15.5,25.3,41.7,42,71.4,42s55.9-16.7,71.4-42c-7.5-.6-15.1-1.1-22.8-1.5l-41.7-140.6c4.5-3,7.1-8.1,7-13.4,28.4-7.5,60.5-13,94.9-16,13.6-1.2,25.7,8.9,26.9,22.5l1.1,12.5c-14.2,1.4-28.9,2.3-45,2.6h-5.2c0,.1-.4,5.3-.4,5.3l-4.3,55.3c-.8,10.1-.4,19.7,1.1,28.7,5.1,29.4,21.5,55.7,47.7,76,8.2,6.4,16.1,11.2,22.5,14.7l3.6,39.6c1.7,18.3-10.6,35-28.7,38.9l-54.4,11.6v5.4h194.3v-5.4l-54.4-11.6c-18-3.8-30.3-20.5-28.7-38.9l3.6-39.5c6.5-3.5,14.4-8.3,22.6-14.7,26.1-20.3,42.6-46.6,47.6-76,1.5-8.9,1.9-18.6,1.1-28.7l-4.3-55.3-.4-5.1h-5.2c-16.1-.5-30.8-1.3-45-2.7l1.1-12.5c1.2-13.6,13.3-23.7,26.9-22.5,34.4,3,66.5,8.5,94.9,16,0,5.4,2.5,10.4,7,13.4l-41.7,140.6c-7.7.4-15.3.9-22.8,1.5,15.5,25.3,41.7,42,71.4,42s55.9-16.7,71.4-42c-7.4-.6-15-1.1-22.7-1.5ZM66,207.3c-10.2,0-20.4.3-30.3.6l32.1-137.4c.7,0,1.4.1,2.1,0l-3.9,136.6ZM107.1,207.9c-9.9-.4-20.1-.6-30.3-.6l-4-137c.6-.1,1.3-.3,1.9-.5,0,0,0,0,0,0l32.3,138.2ZM321.4,81.8l4.3,55.3c.7,9.1.5,18.3-1.1,27.3-11.7,68.5-82.1,93.6-82.1,93.6,0,0-70.6-25.1-82.3-93.6-1.5-9-1.8-18.2-1.1-27.3l4.3-55.3c31.9-.7,56-3.3,79-7.1,23,3.9,47.1,6.4,79,7.1ZM408,207.3c-10.2,0-20.3.3-30.3.6l32.3-138.2s0,0,0,0c.6.2,1.3.4,1.9.5l-4,137ZM418.7,207.3l-3.9-136.6c.7,0,1.4,0,2.1,0l32.1,137.4c-10-.4-20.1-.6-30.3-.6Z"/>
  <g>
    <path class="st1" d="M262.3,182.9h.5v13.5h-71.5v-.5c7.6,0,9.4-3.6,9.5-20.3v-64.6c-.2-16.7-2-20.3-9.5-20.3v-.3h29.4v.3c-7.3,0-9.2,3.3-9.5,18v85.9h22.9c17.7,0,23.5-2.1,28.3-11.8Z"/>
    <g>
      <path class="st1" d="M249.8,112.1v-.2h22.3l-42.7,80.8c8.9-.8,12.9-3.1,16.2-8.5l38.2-72.3v-1.5h-62.7v13.5h.3c5-9.7,10.8-11.8,28.5-11.8Z"/>
      <path class="st1" d="M287.3,202.8c-4.8,9.7-10.6,11.8-28.5,11.8h-29.2l8.8-16.6h-11.7l-8.8,16.6v1.7h69.9v-13.5h-.5Z"/>
    </g>
  </g>
</svg>