<?xml version="1.0" encoding="UTF-8"?>
<svg id="Layer_1" xmlns="http://www.w3.org/2000/svg" xmlns:xlink="http://www.w3.org/1999/xlink" version="1.1" viewBox="0 0 1603.8 542.6">
  <!-- Generator: Adobe Illustrator 30.1.0, SVG Export Plug-In . SVG Version: 2.1.1 Build 136)  -->
  <defs>
    <style>
      .st0 {
        fill-rule: evenodd;
      }

      .st0, .st1 {
        fill: #fff;
      }

      .st2 {
        fill: url(#linear-gradient2);
      }

      .st3 {
        fill: url(#linear-gradient1);
      }

      .st4 {
        fill: url(#linear-gradient);
      }
    </style>
    <linearGradient id="linear-gradient" x1="141.4" y1="272.7" x2="284.9" y2="272.7" gradientTransform="translate(0 544) scale(1 -1)" gradientUnits="userSpaceOnUse">
      <stop offset="0" stop-color="#a1724f"/>
      <stop offset="1" stop-color="#edba9a"/>
    </linearGradient>
    <linearGradient id="linear-gradient1" x1=".1" y1="299.5" x2="549.9" y2="299.5" gradientTransform="translate(0 544) scale(1 -1)" gradientUnits="userSpaceOnUse">
      <stop offset="0" stop-color="#a1724f"/>
      <stop offset="1" stop-color="#edba9a"/>
    </linearGradient>
    <linearGradient id="linear-gradient2" x1="6.8" y1="77" x2="550" y2="77" gradientTransform="translate(0 544) scale(1 -1)" gradientUnits="userSpaceOnUse">
      <stop offset="0" stop-color="#a1724f"/>
      <stop offset="1" stop-color="#edba9a"/>
    </linearGradient>
  </defs>
  <g>
    <path class="st1" d="M616.3,271.3v-.6c8.5,0,12.2-1.6,12.2-7.3v-108.8c0-5.7-3.7-7.5-12.2-7.5v-.4h36.6v.4c-8.5,0-12.2,1.8-12.2,7.5v114.7h24.2c22.8,0,27.1-12.2,30.9-24.8l1.6.6-6.3,26.2h-74.8Z"/>
    <path class="st1" d="M701.5,271.3v-.6c8.3,0,12-1.6,12-7.3v-108.8c0-5.7-3.7-7.5-12-7.5v-.4h36.4v.4c-8.5,0-12.2,1.8-12.2,7.5v108.8c0,5.7,3.7,7.3,12.2,7.3v.6h-36.4Z"/>
    <path class="st1" d="M742,271.3v-.6c8.5,0,12.2-1.6,12.2-7.3v-108.8c0-5.7-3.7-7.5-12.2-7.5v-.4h36.6v.4c-8.5,0-12.2,1.8-12.2,7.5v114.7h24.2c22.8,0,27.1-12.2,30.9-24.8l1.6.6-6.3,26.2h-74.8Z"/>
    <path class="st1" d="M827.2,271.3v-.6c8.3,0,12-1.6,12-7.3v-108.8c0-5.7-3.7-7.5-12-7.5v-.4h36.4v.4c-8.5,0-12.2,1.8-12.2,7.5v108.8c0,5.7,3.7,7.3,12.2,7.3v.6h-36.4Z"/>
    <path class="st1" d="M861.6,270.6c7.5,0,13-1.6,14.8-7.3l41.1-118.8,40.9,118.8c1.8,5.7,7.9,7.3,14.8,7.3v.6h-37.8v-.6c8.3,0,11.4-1.6,9.6-7.3l-13.4-39h-39l-13.4,39c-1.8,5.7,1.2,7.3,9.6,7.3v.6h-27v-.6h-.2ZM893.3,222.2h37.4l-18.7-54.5-18.7,54.5Z"/>
    <path class="st1" d="M971.2,146.6h25.2l44.7,91.1v-83.2c0-5.7-3.9-7.5-12.2-7.5v-.4h26.2v.4c-8.3,0-12,1.8-12,7.5v118.8l-58-117.8v107.8c0,5.7,3.7,7.3,12.2,7.3v.6h-26.2v-.6c8.3,0,12-1.6,12-7.3v-108.8c0-5.7-3.7-7.5-12-7.5v-.4h0Z"/>
    <path class="st1" d="M1071.5,263.3v-108.8c0-5.7-3.7-7.5-12.2-7.5v-.4h70.8l6.3,26.2-1.6.6c-3.9-12.6-8.1-24.8-30.9-24.8h-20.1v41.9h23.4c5.7,0,7.5-3.7,7.5-12h1.4v26.2h-1.4c0-8.3-1.8-12.2-7.5-12.2h-23.4v76.7h24.2c22.8,0,27-12.2,30.9-24.8l1.6.6-6.3,26.2h-74.8v-.6c8.5,0,12.2-1.6,12.2-7.3h0Z"/>
    <path class="st1" d="M1205.5,270.6c8.3,0,12-1.6,12-7.3v-108.8c0-5.7-3.7-7.5-12-7.5v-.4h70.6l6.3,26.2-1.6.6c-3.9-12.6-8.1-24.8-30.9-24.8h-20.1v41.9h23.4c5.7,0,7.5-3.7,7.5-12h1.6v26.2h-1.6c0-8.3-1.8-12.2-7.5-12.2h-23.4v70.8c0,5.7,3.7,7.3,12.2,7.3v.6h-36.4v-.6h0Z"/>
    <path class="st1" d="M1298.2,255.2c4.3,0,7.7,3.5,7.7,7.9s-3.5,7.7-7.7,7.7-7.7-3.5-7.7-7.7,3.5-7.9,7.7-7.9h0Z"/>
    <path class="st1" d="M616.3,433.2l57.2-122.6h-18.5c-22.8,0-27,12.2-30.9,24.8l-1.6-.6,6.3-26.2h58.6v2l-56.1,120.6h21.6c22.8,0,27.1-12.2,31.1-24.8l1.4.6-6.1,26.2h-63Z"/>
    <path class="st1" d="M685.2,432.6c7.5,0,13-1.6,14.8-7.3l41.1-118.8,40.9,118.8c1.8,5.7,7.9,7.3,14.8,7.3v.6h-37.8v-.6c8.3,0,11.4-1.6,9.6-7.3l-13.4-39h-39l-13.4,39c-1.8,5.7,1.2,7.3,9.6,7.3v.6h-27.1v-.6h0ZM717,384.2h37.4l-18.7-54.5-18.7,54.5Z"/>
    <path class="st1" d="M808.1,400.8c4.9,0,8.1,3.1,8.3,7.5.4,7.9-6.3,9.8-7.3,13.6-1.4,5.7,6.9,11.2,15.7,11.2s16.1-6.5,16.1-22.6v-92.5c0-5.7-4.3-9.2-19.3-9.2v-.4h43.5v.4c-8.3,0-12,1.8-12,7.5v88.1c0,16.1-11.4,30.7-28.3,30.7s-25.8-11-25.8-23.8,4.3-10.6,9.2-10.6h-.1Z"/>
    <path class="st1" d="M858.9,432.6c7.5,0,13-1.6,14.8-7.3l41.1-118.8,40.9,118.8c1.8,5.7,7.9,7.3,14.8,7.3v.6h-37.8v-.6c8.3,0,11.4-1.6,9.6-7.3l-13.4-39h-39l-13.4,39c-1.8,5.7,1.2,7.3,9.6,7.3v.6h-27v-.6h-.2ZM890.7,384.2h37.4l-18.7-54.5-18.7,54.5Z"/>
    <path class="st1" d="M964.5,370.7c0-37.2,24.6-64.3,60.2-64.3s29.1,10.2,32.9,8.5c2.6-.8.2-9.2.2-9.2l1.6-.6,9.8,29.5-1.8.8s-10.4-26-40.7-26-50,23.6-50,61.2,21.8,61.4,50,61.4,42.9-26.4,42.9-26.4l1.6,1.2s-13,28.3-46.6,28.3-60.2-27.1-60.2-64.5h.1Z"/>
    <path class="st1" d="M1075.3,433.2l57.2-122.6h-18.5c-22.8,0-27,12.2-30.9,24.8l-1.6-.6,6.3-26.2h58.6v2l-56.1,120.6h21.6c22.8,0,27.1-12.2,31.1-24.8l1.4.6-6.1,26.2h-63Z"/>
    <path class="st1" d="M1154.4,308.5h36.4v.4c-8.3,0-12,1.8-12,7.5v44.5l40.5-44.5c5.1-5.7,3.1-7.5-5.3-7.5v-.4h27.5v.4c-7.5,0-14,1.8-19.1,7.5l-25.8,28.3,39.7,80.5c2.8,5.7,7.3,7.3,15.9,7.3v.6h-38.8v-.6c7.7,0,11.2-1.6,8.3-7.3l-34.4-70-8.3,9.2v60.8c0,5.7,3.7,7.3,12,7.3v.6h-36.4v-.6c8.3,0,12.2-1.6,12.2-7.3v-108.8c0-5.7-3.9-7.5-12.2-7.5v-.4h-.2Z"/>
    <path class="st1" d="M1306.2,306.5c35.6,0,62.4,25.2,62.4,64.3s-26.8,64.5-62.4,64.5-62.2-25.2-62.2-64.5,26.8-64.3,62.2-64.3ZM1256.1,370.7c0,40.9,21.8,62.4,50,62.4s50.2-21.6,50.2-62.4-21.8-62.2-50.2-62.2-50,21.6-50,62.2Z"/>
    <path class="st1" d="M1384.7,379.7c4.3,27.9,19.7,53.5,43.1,53.5s23.8-9.2,23.8-26.4c0-39-62.6-40.1-62.6-75s10.2-25.2,31.1-25.2,23,8.1,25.8,7.1c2-.6.4-7.9.4-7.9l1.6-.4,5.7,29.5-2,.8s-8.7-27-29.5-27-20.9,8.3-20.9,19.1c0,28.3,62.6,32.7,62.6,75s-12,32.5-37,32.5-35.2-22.2-39.7-20.7c-2.8.6-2.8,7.5-2.8,7.5h-1.4v-42.1l1.8-.2h0Z"/>
    <path class="st1" d="M1469.9,308.5h36.4v.4c-8.3,0-12,1.8-12,7.5v44.5l40.5-44.5c5.1-5.7,3.1-7.5-5.3-7.5v-.4h27.5v.4c-7.5,0-14,1.8-19.1,7.5l-25.8,28.3,39.7,80.5c2.8,5.7,7.3,7.3,15.9,7.3v.6h-38.8v-.6c7.7,0,11.2-1.6,8.3-7.3l-34.4-70-8.3,9.2v60.8c0,5.7,3.7,7.3,12,7.3v.6h-36.4v-.6c8.3,0,12.2-1.6,12.2-7.3v-108.8c0-5.7-3.9-7.5-12.2-7.5v-.4h-.2Z"/>
    <path class="st1" d="M1565.5,433.2v-.6c8.3,0,12-1.6,12-7.3v-108.8c0-5.7-3.7-7.5-12-7.5v-.4h36.4v.4c-8.5,0-12.2,1.8-12.2,7.5v108.8c0,5.7,3.7,7.3,12.2,7.3v.6h-36.4Z"/>
  </g>
  <g>
    <path class="st0" d="M439.6,78.4h33.4c1.2-3.8,3.1-7.3,5.6-10.3h-44.6c2.5,3,4.4,6.5,5.6,10.3"/>
    <rect class="st1" x="461.4" y="83.8" width="10.3" height="408"/>
    <rect class="st1" x="440.9" y="83.8" width="10.3" height="408"/>
    <rect class="st1" x="409.9" y="47.5" width="95.4" height="10.3"/>
  </g>
  <g>
    <path class="st4" d="M282.1,365.4l2.8-44.3h-1.4c-9.1,22.2-28.8,33.2-59.5,33.2h-38.5l96.7-177.2h-133.8l-4.2,41.5h1.4c7.8-20.8,26.6-30.5,59.5-30.5h33l-96.7,177.2h140.7Z"/>
    <path class="st3" d="M548.8,0l1.1,489h-31.9V32.5H39.4l.7,298.5v23.3h17c30.7,0,50.4-11.1,59.5-33.2h1.4l-2.8,44.3H.1v-1.4c4.2-3.2,6.2-7.3,6.7-13.9V0"/>
    <polygon class="st2" points="470 511.3 470 511.2 39.4 511.2 39.4 391.4 6.8 391.4 6.8 541.9 550 542.6 549.9 511.3 470 511.3"/>
  </g>
  <rect class="st1" x="441.1" y="498.1" width="156.6" height="4.8"/>
  <g>
    <path class="st1" d="M631.8,482.8l10.5,30.4c.6,1.6,1.3,2.5,2.1,2.9v.2h-7.2l-5-14.3h-9.7c-2.2,7.6-1.9,12.5.7,14v.2h-7.8l10.9-31.4-.7-2.1h6.3ZM623.2,500.1h8.3l-4.1-12.1-4.2,12.1Z"/>
    <path class="st1" d="M664.2,483.1v-.2h10.3c10.3,0,16.9,6.4,16.9,16.4s-6.9,17.1-17.5,17.1h-9.7v-.2c.9-.7,1.2-1.6,1.2-3.2v-26.6c0-1.6-.3-2.5-1.2-3.2ZM673.8,514.3c7.4,0,11.3-4.6,11.3-13.1s-5.1-16.5-12.7-16.5h-1.1v29.6h2.5Z"/>
    <path class="st1" d="M710.1,485.9c-.6-1.6-1.3-2.5-2.1-2.9v-.2h7.2l9.9,28.3,4.6-13.3c2.5-8,2.3-13.2-.4-14.8v-.2h7.8l-10.9,31.4.7,2.1h-6.3l-10.5-30.4Z"/>
    <path class="st1" d="M771.1,482.3c9.6,0,16.8,7.4,16.8,17.2s-7.2,17.2-16.8,17.2-16.8-7.4-16.8-17.2,7.2-17.2,16.8-17.2ZM773.2,514.6c5.2,0,8.6-4.6,8.6-12.1s-5.6-17.9-12.8-17.9-8.6,4.6-8.6,12.1,5.6,17.9,12.8,17.9Z"/>
    <path class="st1" d="M832.5,491.7h-.2c-.9-4.6-4.2-7.3-8.8-7.3s-9.7,3.8-9.7,12.7,4.9,16.6,12,16.6,6.9-1.8,8.2-4.6l.7.4c-1.7,4.5-6.5,7.4-11.9,7.4-8.6,0-15.1-7.4-15.1-17.1s7.1-17.4,16.7-17.4,6.3.7,8.8,2l-.6,7.4Z"/>
    <path class="st1" d="M869.7,482.8l10.5,30.4c.6,1.6,1.3,2.5,2.1,2.9v.2h-7.2l-5-14.3h-9.7c-2.2,7.6-1.9,12.5.7,14v.2h-7.8l10.9-31.4-.7-2.1h6.3ZM861.1,500.1h8.3l-4.1-12.1-4.2,12.1Z"/>
    <path class="st1" d="M924,491.7h-.2c-.9-4.6-4.2-7.3-8.8-7.3s-9.7,3.8-9.7,12.7,4.9,16.6,12,16.6,6.9-1.8,8.2-4.6l.7.4c-1.7,4.5-6.5,7.4-11.9,7.4-8.6,0-15.1-7.4-15.1-17.1s7.1-17.4,16.7-17.4,6.3.7,8.8,2l-.6,7.4Z"/>
    <path class="st1" d="M946.3,483.1v-.2h8.4v.2c-.9.7-1.2,1.6-1.2,3.2v26.6c0,1.6.3,2.5,1.2,3.2v.2h-8.4v-.2c.9-.7,1.2-1.6,1.2-3.2v-26.6c0-1.6-.3-2.5-1.2-3.2Z"/>
    <path class="st1" d="M990.8,482.8l10.5,30.4c.6,1.6,1.3,2.5,2.1,2.9v.2h-7.2l-5-14.3h-9.7c-2.2,7.6-1.9,12.5.7,14v.2h-7.8l10.9-31.4-.7-2.1h6.3ZM982.2,500.1h8.3l-4.1-12.1-4.2,12.1Z"/>
    <path class="st1" d="M1076.3,484.7l-2.1,6.9h-.2c-.7-4.7-2.8-7.3-5.7-7.3s-3.8,1.7-3.8,5.1,1.3,6.6,3.9,11l3.6-6.5c5.2,0,8,2.5,8,6.5s-1.6,6.2-4.6,9.2c2,1.9,3.9,2.9,5.8,2.9s2.5-.7,3-2.1h.5c-.3,4-2.6,6.5-6.3,6.5s-4.8-1.1-7.2-3c-2,2-4.7,3-7.9,3-6.4,0-11.1-4.1-11.1-9.2s3.1-7.6,8.1-9.2c-1.2-2.9-1.9-5.5-1.9-7.7,0-5,3.6-8.5,9.6-8.5s6,.8,8.3,2.4ZM1061,500c-1.9.8-2.6,2.7-2.6,5.4,0,5.1,2.7,8.9,7,8.9s3.2-.6,4.4-1.6c-3.6-3.3-6.8-8.2-8.9-12.7ZM1077.2,502.4c0-2.3-1.5-3.5-4.1-3.5s-3.4.6-4.5,1.8c1.6,2.7,3.5,5.4,5.6,7.7,2-2.2,3.1-4.1,3.1-6Z"/>
    <path class="st1" d="M1158.3,491.7h-.2c-.9-4.6-4.2-7.3-8.8-7.3s-9.7,3.8-9.7,12.7,4.9,16.6,12,16.6,6.9-1.8,8.2-4.6l.7.4c-1.7,4.5-6.5,7.4-11.9,7.4-8.6,0-15.1-7.4-15.1-17.1s7.1-17.4,16.7-17.4,6.3.7,8.8,2l-.6,7.4Z"/>
    <path class="st1" d="M1196.4,482.3c9.6,0,16.8,7.4,16.8,17.2s-7.2,17.2-16.8,17.2-16.8-7.4-16.8-17.2,7.2-17.2,16.8-17.2ZM1198.5,514.6c5.2,0,8.6-4.6,8.6-12.1s-5.6-17.9-12.8-17.9-8.6,4.6-8.6,12.1,5.6,17.9,12.8,17.9Z"/>
    <path class="st1" d="M1238.8,516.1v.2h-5.4v-.2c1.2-.8,1.7-2.6,1.7-5.8v-21.4c0-3.2-.5-5-1.7-5.8v-.2h6.7l15.7,25.4v-19.4c0-3.2-.5-5-1.7-5.8v-.2h5.4v.2c-1.2.8-1.7,2.6-1.7,5.8v27.5h-3.9l-16.8-27.2v21.1c0,3.2.5,5,1.7,5.8Z"/>
    <path class="st1" d="M1291,482.3c3.5,0,6.8.9,9.3,2.5l-2.1,6.9h-.2c-1.3-4.8-3.9-7.3-7.7-7.3s-5.5,2-5.5,4.8c0,7.8,16,7.3,16,18.2s-4.5,9.4-11.8,9.4-6.8-.9-9.3-2.5l2.1-6.9h.2c1.3,4.8,4,7.3,7.9,7.3s5.7-2,5.7-5c0-8.1-16-7.6-16-18.3s4.4-9.2,11.3-9.2Z"/>
    <path class="st1" d="M1322.8,486.9c.4-2.1.3-3.4-.2-3.8v-.2h8.1v.2c-2.3,1.3-3.5,16.2-3.5,18.9,0,8.3,3.6,12.6,9.1,12.5h1.7c.8,0,1.2-.5,1.2-1.6v-26.5c0-1.6-.3-2.5-1.2-3.2v-.2h8.4v.2c-.9.7-1.2,1.6-1.2,3.2v26.6c0,1.6.3,2.5,1.2,3.2v.2h-5.7c-2.8,0-4.7.4-7,.5-7.8.1-12.8-4.6-12.8-14.6s.7-9,2-15.3Z"/>
    <path class="st1" d="M1367.1,483.1v-.2h8.4v.2c-.9.7-1.2,1.6-1.2,3.2v28.1h3c5.5,0,9-2,10.6-5.9h.2l-.5,7.9h-20.5v-.2c.9-.7,1.2-1.6,1.2-3.2v-26.6c0-1.6-.3-2.5-1.2-3.2Z"/>
    <path class="st1" d="M1412.9,484.8c-4.7,0-7.6,1.7-9.1,5.4h-.2l.7-7.4h23.1l.7,7.4h-.2c-1.4-3.7-4.4-5.4-9.1-5.4v28.1c0,1.6.3,2.5,1.2,3.2v.2h-8.4v-.2c.9-.7,1.2-1.6,1.2-3.2v-28.1Z"/>
    <path class="st1" d="M1463.1,482.3c9.6,0,16.8,7.4,16.8,17.2s-7.2,17.2-16.8,17.2-16.8-7.4-16.8-17.2,7.2-17.2,16.8-17.2ZM1465.2,514.6c5.2,0,8.6-4.6,8.6-12.1s-5.6-17.9-12.8-17.9-8.6,4.6-8.6,12.1,5.6,17.9,12.8,17.9Z"/>
    <path class="st1" d="M1500.1,483.1v-.2h11.9c8,0,12.3,2.9,12.3,8.4s-3.3,8.3-8.8,9.9l7.8,12.1c1.1,1.6,2,2.5,2.8,2.9v.2h-2.6c-3.7,0-6.1-1.2-7.9-4.1l-6.6-10.2c-.4,0-.8,0-1.3,0h-.5v10.8c0,1.6.3,2.5,1.2,3.2v.2h-8.4v-.2c.9-.7,1.2-1.6,1.2-3.2v-26.6c0-1.6-.3-2.5-1.2-3.2ZM1507.7,500.1c6.7,0,10.4-2.6,10.4-7.5s-3.5-7.8-8.7-7.8h-2.1v15.3h.5Z"/>
    <path class="st1" d="M1545.8,483.1v-.2h8.4v.2c-.9.7-1.2,1.6-1.2,3.2v26.6c0,1.6.3,2.5,1.2,3.2v.2h-8.4v-.2c.9-.7,1.2-1.6,1.2-3.2v-26.6c0-1.6-.3-2.5-1.2-3.2Z"/>
    <path class="st1" d="M1590.3,482.8l10.5,30.4c.6,1.6,1.3,2.5,2.1,2.9v.2h-7.2l-5-14.3h-9.7c-2.2,7.6-1.9,12.5.7,14v.2h-7.8l10.9-31.4-.7-2.1h6.3ZM1581.7,500.1h8.3l-4.1-12.1-4.2,12.1Z"/>
  </g>
</svg>