<?xml version="1.0" encoding="UTF-8"?>
<svg id="Layer_1" xmlns="http://www.w3.org/2000/svg" xmlns:xlink="http://www.w3.org/1999/xlink" version="1.1" viewBox="0 0 1786.8 542.6">
  <!-- Generator: Adobe Illustrator 30.1.0, SVG Export Plug-In . SVG Version: 2.1.1 Build 136)  -->
  <defs>
    <style>
      .st0 {
        fill-rule: evenodd;
      }

      .st0, .st1 {
        fill: #fff;
      }

      .st2 {
        fill: url(#linear-gradient2);
      }

      .st3 {
        fill: url(#linear-gradient1);
      }

      .st4 {
        fill: url(#linear-gradient);
      }
    </style>
    <linearGradient id="linear-gradient" x1="141.3" y1="2765.2" x2="284.8" y2="2765.2" gradientTransform="translate(0 3036.4) scale(1 -1)" gradientUnits="userSpaceOnUse">
      <stop offset="0" stop-color="#a1724f"/>
      <stop offset="1" stop-color="#edba9a"/>
    </linearGradient>
    <linearGradient id="linear-gradient1" x1="0" y1="2791.9" x2="549.8" y2="2791.9" gradientTransform="translate(0 3036.4) scale(1 -1)" gradientUnits="userSpaceOnUse">
      <stop offset="0" stop-color="#a1724f"/>
      <stop offset="1" stop-color="#edba9a"/>
    </linearGradient>
    <linearGradient id="linear-gradient2" x1="6.7" y1="2569.4" x2="549.9" y2="2569.4" gradientTransform="translate(0 3036.4) scale(1 -1)" gradientUnits="userSpaceOnUse">
      <stop offset="0" stop-color="#a1724f"/>
      <stop offset="1" stop-color="#edba9a"/>
    </linearGradient>
  </defs>
  <g>
    <path class="st1" d="M616.4,225.6v-.7c10.1,0,14.5-1.9,14.5-8.7V87.1c0-6.8-4.4-8.9-14.5-8.9v-.5h43.4v.5c-10.1,0-14.5,2.1-14.5,8.9v136.1h28.7c27,0,32.1-14.5,36.7-29.4l1.9.7-7.5,31.1h-88.7Z"/>
    <path class="st1" d="M717.4,225.6v-.7c9.8,0,14.2-1.9,14.2-8.7V87.1c0-6.8-4.4-8.9-14.2-8.9v-.5h43.2v.5c-10.1,0-14.5,2.1-14.5,8.9v129.1c0,6.8,4.4,8.7,14.5,8.7v.7h-43.2Z"/>
    <path class="st1" d="M765.5,225.6v-.7c10.1,0,14.5-1.9,14.5-8.7V87.1c0-6.8-4.4-8.9-14.5-8.9v-.5h43.4v.5c-10.1,0-14.5,2.1-14.5,8.9v136.1h28.7c27,0,32.1-14.5,36.7-29.4l1.9.7-7.5,31.1h-88.7Z"/>
    <path class="st1" d="M866.5,225.6v-.7c9.8,0,14.2-1.9,14.2-8.7V87.1c0-6.8-4.4-8.9-14.2-8.9v-.5h43.2v.5c-10.1,0-14.5,2.1-14.5,8.9v129.1c0,6.8,4.4,8.7,14.5,8.7v.7h-43.2Z"/>
    <path class="st1" d="M907.4,224.7c8.9,0,15.4-1.9,17.6-8.7l48.8-140.9,48.5,140.9c2.1,6.8,9.4,8.7,17.6,8.7v.7h-44.8v-.7c9.8,0,13.5-1.9,11.4-8.7l-15.9-46.3h-46.3l-15.9,46.3c-2.1,6.8,1.4,8.7,11.4,8.7v.7h-32v-.7h-.2ZM945,167.3h44.4l-22.2-64.7-22.2,64.7Z"/>
    <path class="st1" d="M1037.4,77.7h29.9l53,108.1v-98.7c0-6.8-4.6-8.9-14.5-8.9v-.5h31.1v.5c-9.8,0-14.2,2.1-14.2,8.9v140.9l-68.8-139.7v127.9c0,6.8,4.4,8.7,14.5,8.7v.7h-31.1v-.7c9.8,0,14.2-1.9,14.2-8.7V87c0-6.8-4.4-8.9-14.2-8.9v-.5h.1Z"/>
    <path class="st1" d="M1156.3,216.1V87c0-6.8-4.4-8.9-14.5-8.9v-.5h84l7.5,31.1-1.9.7c-4.6-14.9-9.6-29.4-36.7-29.4h-23.8v49.7h27.8c6.8,0,8.9-4.4,8.9-14.2h1.7v31.1h-1.7c0-9.8-2.1-14.5-8.9-14.5h-27.8v91h28.7c27,0,32-14.5,36.7-29.4l1.9.7-7.5,31.1h-88.7v-.7c10.1,0,14.5-1.9,14.5-8.7h-.1Z"/>
    <path class="st1" d="M1315.3,224.7c9.8,0,14.2-1.9,14.2-8.7V87c0-6.8-4.4-8.9-14.2-8.9v-.5h83.7l7.5,31.1-1.9.7c-4.6-14.9-9.6-29.4-36.7-29.4h-23.8v49.7h27.8c6.8,0,8.9-4.4,8.9-14.2h1.9v31.1h-1.9c0-9.8-2.1-14.5-8.9-14.5h-27.8v84c0,6.8,4.4,8.7,14.5,8.7v.7h-43.2v-.7h-.1Z"/>
    <path class="st1" d="M1425.3,206.5c5.1,0,9.1,4.2,9.1,9.4s-4.2,9.1-9.1,9.1-9.1-4.2-9.1-9.1,4.2-9.4,9.1-9.4h0Z"/>
    <path class="st1" d="M616.4,417.6l67.9-145.4h-21.9c-27,0-32,14.5-36.7,29.4l-1.9-.7,7.5-31.1h69.5v2.4l-66.5,143.1h25.6c27,0,32.1-14.5,36.9-29.4l1.7.7-7.2,31.1h-74.7Z"/>
    <path class="st1" d="M698.1,416.9c8.9,0,15.4-1.9,17.6-8.7l48.8-140.9,48.5,140.9c2.1,6.8,9.4,8.7,17.6,8.7v.7h-44.8v-.7c9.8,0,13.5-1.9,11.4-8.7l-15.9-46.3h-46.3l-15.9,46.3c-2.1,6.8,1.4,8.7,11.4,8.7v.7h-32.1v-.7h-.1ZM735.8,359.5h44.4l-22.2-64.7-22.2,64.7Z"/>
    <path class="st1" d="M843.9,379.2c5.8,0,9.6,3.7,9.8,8.9.5,9.4-7.5,11.6-8.7,16.1-1.7,6.8,8.2,13.3,18.6,13.3s19.1-7.7,19.1-26.8v-109.7c0-6.8-5.1-10.9-22.9-10.9v-.5h51.6v.5c-9.8,0-14.2,2.1-14.2,8.9v104.5c0,19.1-13.5,36.4-33.6,36.4s-30.6-13-30.6-28.2,5.1-12.6,10.9-12.6h-.1Z"/>
    <path class="st1" d="M904.2,416.9c8.9,0,15.4-1.9,17.6-8.7l48.8-140.9,48.5,140.9c2.1,6.8,9.4,8.7,17.6,8.7v.7h-44.8v-.7c9.8,0,13.5-1.9,11.4-8.7l-15.9-46.3h-46.3l-15.9,46.3c-2.1,6.8,1.4,8.7,11.4,8.7v.7h-32v-.7h-.2ZM941.9,359.5h44.4l-22.2-64.7-22.2,64.7Z"/>
    <path class="st1" d="M1029.4,343.5c0-44.1,29.2-76.3,71.4-76.3s34.5,12.1,39,10.1c3.1-.9.2-10.9.2-10.9l1.9-.7,11.6,35-2.1.9s-12.3-30.8-48.3-30.8-59.3,28-59.3,72.6,25.9,72.8,59.3,72.8,50.9-31.3,50.9-31.3l1.9,1.4s-15.4,33.6-55.3,33.6-71.4-32.1-71.4-76.5h.1Z"/>
    <path class="st1" d="M1160.9,417.6l67.9-145.4h-21.9c-27,0-32,14.5-36.7,29.4l-1.9-.7,7.5-31.1h69.5v2.4l-66.5,143.1h25.6c27,0,32.1-14.5,36.9-29.4l1.7.7-7.2,31.1h-74.7Z"/>
    <path class="st1" d="M1254.7,269.7h43.2v.5c-9.8,0-14.2,2.1-14.2,8.9v52.8l48-52.8c6-6.8,3.7-8.9-6.3-8.9v-.5h32.6v.5c-8.9,0-16.6,2.1-22.7,8.9l-30.6,33.6,47.1,95.5c3.3,6.8,8.7,8.7,18.9,8.7v.7h-46v-.7c9.1,0,13.3-1.9,9.8-8.7l-40.8-83-9.8,10.9v72.1c0,6.8,4.4,8.7,14.2,8.7v.7h-43.2v-.7c9.8,0,14.5-1.9,14.5-8.7v-129.1c0-6.8-4.6-8.9-14.5-8.9v-.5h-.2Z"/>
    <path class="st1" d="M1434.8,267.3c42.2,0,74,29.9,74,76.3s-31.8,76.5-74,76.5-73.8-29.9-73.8-76.5,31.8-76.3,73.8-76.3ZM1375.3,343.5c0,48.5,25.9,74,59.3,74s59.5-25.6,59.5-74-25.9-73.8-59.5-73.8-59.3,25.6-59.3,73.8Z"/>
    <path class="st1" d="M1527.9,354.2c5.1,33.1,23.4,63.5,51.1,63.5s28.2-10.9,28.2-31.3c0-46.3-74.3-47.6-74.3-89s12.1-29.9,36.9-29.9,27.3,9.6,30.6,8.4c2.4-.7.5-9.4.5-9.4l1.9-.5,6.8,35-2.4.9s-10.3-32-35-32-24.8,9.8-24.8,22.7c0,33.6,74.3,38.8,74.3,89s-14.2,38.6-43.9,38.6-41.8-26.3-47.1-24.6c-3.3.7-3.3,8.9-3.3,8.9h-1.7v-49.9l2.1-.2h0Z"/>
    <path class="st1" d="M1628.9,269.7h43.2v.5c-9.8,0-14.2,2.1-14.2,8.9v52.8l48-52.8c6-6.8,3.7-8.9-6.3-8.9v-.5h32.6v.5c-8.9,0-16.6,2.1-22.7,8.9l-30.6,33.6,47.1,95.5c3.3,6.8,8.7,8.7,18.9,8.7v.7h-46v-.7c9.1,0,13.3-1.9,9.8-8.7l-40.8-83-9.8,10.9v72.1c0,6.8,4.4,8.7,14.2,8.7v.7h-43.2v-.7c9.8,0,14.5-1.9,14.5-8.7v-129.1c0-6.8-4.6-8.9-14.5-8.9v-.5h-.2Z"/>
    <path class="st1" d="M1742.3,417.6v-.7c9.8,0,14.2-1.9,14.2-8.7v-129.1c0-6.8-4.4-8.9-14.2-8.9v-.5h43.2v.5c-10.1,0-14.5,2.1-14.5,8.9v129.1c0,6.8,4.4,8.7,14.5,8.7v.7h-43.2Z"/>
  </g>
  <g>
    <path class="st0" d="M439.5,78.4h33.4c1.2-3.8,3.1-7.3,5.6-10.3h-44.6c2.5,3,4.4,6.5,5.6,10.3"/>
    <rect class="st1" x="461.3" y="83.8" width="10.3" height="408"/>
    <rect class="st1" x="440.8" y="83.8" width="10.3" height="408"/>
    <rect class="st1" x="409.8" y="47.5" width="95.4" height="10.3"/>
  </g>
  <g>
    <path class="st4" d="M282,365.4l2.8-44.3h-1.4c-9.1,22.2-28.8,33.2-59.5,33.2h-38.5l96.7-177.2h-133.8l-4.2,41.5h1.4c7.8-20.8,26.6-30.5,59.5-30.5h33l-96.7,177.2h140.7Z"/>
    <path class="st3" d="M548.7,0l1.1,489h-31.9V32.5H39.3l.7,298.5v23.3h17c30.7,0,50.4-11.1,59.5-33.2h1.4l-2.8,44.3H0v-1.4c4.2-3.2,6.2-7.3,6.7-13.9V0"/>
    <polygon class="st2" points="469.9 511.3 469.9 511.2 39.3 511.2 39.3 391.4 6.7 391.4 6.7 541.9 549.9 542.6 549.8 511.3 469.9 511.3"/>
  </g>
  <rect class="st1" x="441" y="498.1" width="156.6" height="4.8"/>
  <g>
    <path class="st1" d="M634.8,476.5l12.5,36.1c.8,1.9,1.5,2.9,2.5,3.4v.3h-8.6l-5.9-17h-11.5c-2.6,9-2.3,14.8.8,16.7v.3h-9.2l12.9-37.2-.9-2.5h7.4ZM624.5,496.9h9.9l-4.9-14.3-5,14.3Z"/>
    <path class="st1" d="M673.1,476.8v-.3h12.2c12.3,0,20.1,7.6,20.1,19.5s-8.2,20.3-20.8,20.3h-11.5v-.3c1.1-.8,1.5-1.9,1.5-3.8v-31.6c0-1.9-.4-3-1.5-3.8ZM684.5,513.9c8.8,0,13.4-5.4,13.4-15.5s-6.1-19.6-15-19.6h-1.3v35.1h2.9Z"/>
    <path class="st1" d="M727.7,480.2c-.8-1.9-1.5-2.9-2.5-3.4v-.3h8.6l11.7,33.6,5.4-15.8c2.9-9.5,2.7-15.6-.5-17.5v-.3h9.2l-12.9,37.2.9,2.5h-7.4l-12.5-36.1Z"/>
    <path class="st1" d="M800,475.9c11.3,0,19.9,8.8,19.9,20.5s-8.5,20.5-19.9,20.5-19.9-8.8-19.9-20.5,8.5-20.5,19.9-20.5ZM802.4,514.2c6.1,0,10.2-5.4,10.2-14.4s-6.6-21.3-15.1-21.3-10.2,5.4-10.2,14.4,6.6,21.3,15.1,21.3Z"/>
    <path class="st1" d="M872.8,487h-.3c-1.1-5.5-5-8.7-10.5-8.7s-11.5,4.6-11.5,15,5.8,19.6,14.2,19.6,8.1-2.1,9.8-5.5l.8.5c-2,5.3-7.7,8.8-14.1,8.8-10.2,0-17.9-8.8-17.9-20.3s8.5-20.6,19.8-20.6,7.5.8,10.5,2.3l-.7,8.8Z"/>
    <path class="st1" d="M917,476.5l12.5,36.1c.8,1.9,1.5,2.9,2.5,3.4v.3h-8.6l-5.9-17h-11.5c-2.6,9-2.3,14.8.8,16.7v.3h-9.2l12.9-37.2-.9-2.5h7.4ZM906.7,496.9h9.9l-4.9-14.3-5,14.3Z"/>
    <path class="st1" d="M981.3,487h-.3c-1.1-5.5-5-8.7-10.5-8.7s-11.5,4.6-11.5,15,5.8,19.6,14.2,19.6,8.1-2.1,9.8-5.5l.8.5c-2,5.3-7.7,8.8-14.1,8.8-10.2,0-17.9-8.8-17.9-20.3s8.5-20.6,19.8-20.6,7.5.8,10.5,2.3l-.7,8.8Z"/>
    <path class="st1" d="M1007.8,476.8v-.3h9.9v.3c-1.1.8-1.5,1.9-1.5,3.8v31.6c0,1.9.4,3,1.5,3.8v.3h-9.9v-.3c1.1-.8,1.5-1.9,1.5-3.8v-31.6c0-1.9-.4-3-1.5-3.8Z"/>
    <path class="st1" d="M1060.6,476.5l12.5,36.1c.8,1.9,1.5,2.9,2.5,3.4v.3h-8.6l-5.9-17h-11.5c-2.6,9-2.3,14.8.8,16.7v.3h-9.2l12.9-37.2-.9-2.5h7.4ZM1050.4,496.9h9.9l-4.9-14.3-5,14.3Z"/>
    <path class="st1" d="M1162.1,478.8l-2.5,8.2h-.3c-.8-5.6-3.3-8.7-6.8-8.7s-4.6,2-4.6,6,1.5,7.8,4.7,13l4.3-7.7c6.1,0,9.5,2.9,9.5,7.7s-1.9,7.4-5.5,10.9c2.4,2.3,4.7,3.4,6.8,3.4s3-.9,3.6-2.5h.6c-.4,4.7-3,7.7-7.4,7.7s-5.7-1.3-8.5-3.6c-2.4,2.4-5.6,3.6-9.4,3.6-7.6,0-13.2-4.9-13.2-10.9s3.6-9,9.6-10.9c-1.5-3.4-2.2-6.5-2.2-9.1,0-6,4.3-10.1,11.3-10.1s7.1,1,9.9,2.9ZM1143.9,496.9c-2.2,1-3,3.2-3,6.4,0,6,3.2,10.6,8.4,10.6s3.8-.7,5.3-1.9c-4.3-3.9-8.1-9.7-10.6-15ZM1163.1,499.7c0-2.7-1.8-4.2-4.9-4.2s-4,.8-5.4,2.1c1.9,3.2,4.1,6.4,6.7,9.2,2.4-2.6,3.6-4.9,3.6-7.1Z"/>
    <path class="st1" d="M1259.3,487h-.3c-1.1-5.5-5-8.7-10.5-8.7s-11.5,4.6-11.5,15,5.8,19.6,14.2,19.6,8.1-2.1,9.8-5.5l.8.5c-2,5.3-7.7,8.8-14.1,8.8-10.2,0-17.9-8.8-17.9-20.3s8.5-20.6,19.8-20.6,7.5.8,10.5,2.3l-.7,8.8Z"/>
    <path class="st1" d="M1304.5,475.9c11.3,0,19.9,8.8,19.9,20.5s-8.5,20.5-19.9,20.5-19.9-8.8-19.9-20.5,8.5-20.5,19.9-20.5ZM1307,514.2c6.1,0,10.2-5.4,10.2-14.4s-6.6-21.3-15.1-21.3-10.2,5.4-10.2,14.4,6.6,21.3,15.1,21.3Z"/>
    <path class="st1" d="M1354.8,515.9v.3h-6.4v-.3c1.5-1,2-3.1,2-6.9v-25.4c0-3.8-.6-5.9-2-6.9v-.3h8l18.7,30.2v-23c0-3.8-.6-5.9-2-6.9v-.3h6.4v.3c-1.5,1-2,3.1-2,6.9v32.6h-4.7l-19.9-32.2v25c0,3.8.6,5.9,2,6.9Z"/>
    <path class="st1" d="M1416.7,475.9c4.1,0,8,1.1,11.1,2.9l-2.5,8.2h-.3c-1.5-5.7-4.6-8.7-9.2-8.7s-6.5,2.3-6.5,5.7c0,9.2,19,8.7,19,21.6s-5.4,11.2-14,11.2-8-1.1-11-2.9l2.5-8.2h.3c1.5,5.7,4.7,8.7,9.4,8.7s6.8-2.4,6.8-6c0-9.6-18.9-9-18.9-21.7s5.2-10.9,13.4-10.9Z"/>
    <path class="st1" d="M1454.4,481.3c.5-2.5.4-4-.3-4.6v-.3h9.6v.3c-2.7,1.5-4.2,19.2-4.2,22.4,0,9.9,4.3,15,10.8,14.8h2c1,0,1.5-.6,1.5-1.9v-31.5c0-1.9-.4-3-1.5-3.8v-.3h9.9v.3c-1.1.8-1.5,1.9-1.5,3.8v31.6c0,1.9.4,3,1.5,3.8v.3h-6.8c-3.3,0-5.6.5-8.4.6-9.3.2-15.2-5.5-15.2-17.4s.8-10.6,2.4-18.1Z"/>
    <path class="st1" d="M1506.9,476.8v-.3h9.9v.3c-1.1.8-1.5,1.9-1.5,3.8v33.3h3.6c6.5,0,10.6-2.3,12.6-7h.3l-.6,9.4h-24.3v-.3c1.1-.8,1.5-1.9,1.5-3.8v-31.6c0-1.9-.4-3-1.5-3.8Z"/>
    <path class="st1" d="M1561.3,478.8c-5.6,0-9.1,2-10.8,6.4h-.3l.9-8.8h27.4l.9,8.8h-.3c-1.7-4.4-5.2-6.4-10.8-6.4v33.3c0,1.9.4,3,1.5,3.8v.3h-9.9v-.3c1.1-.8,1.5-1.9,1.5-3.8v-33.3Z"/>
    <path class="st1" d="M1620.9,475.9c11.3,0,19.9,8.8,19.9,20.5s-8.5,20.5-19.9,20.5-19.9-8.8-19.9-20.5,8.5-20.5,19.9-20.5ZM1623.3,514.2c6.1,0,10.2-5.4,10.2-14.4s-6.6-21.3-15.1-21.3-10.2,5.4-10.2,14.4,6.6,21.3,15.1,21.3Z"/>
    <path class="st1" d="M1664.7,476.8v-.3h14.1c9.5,0,14.6,3.4,14.6,9.9s-3.9,9.8-10.5,11.8l9.3,14.3c1.3,1.9,2.3,3,3.3,3.4v.3h-3c-4.4,0-7.3-1.5-9.4-4.9l-7.8-12.1c-.5,0-1,0-1.5,0h-.6v12.8c0,1.9.4,3,1.5,3.8v.3h-9.9v-.3c1.1-.8,1.5-1.9,1.5-3.8v-31.6c0-1.9-.4-3-1.5-3.8ZM1673.8,497c8,0,12.3-3.1,12.3-8.9s-4.1-9.3-10.3-9.3h-2.5v18.2h.6Z"/>
    <path class="st1" d="M1719,476.8v-.3h9.9v.3c-1.1.8-1.5,1.9-1.5,3.8v31.6c0,1.9.4,3,1.5,3.8v.3h-9.9v-.3c1.1-.8,1.5-1.9,1.5-3.8v-31.6c0-1.9-.4-3-1.5-3.8Z"/>
    <path class="st1" d="M1771.8,476.5l12.5,36.1c.8,1.9,1.5,2.9,2.5,3.4v.3h-8.6l-5.9-17h-11.5c-2.6,9-2.3,14.8.8,16.7v.3h-9.2l12.9-37.2-.9-2.5h7.4ZM1761.6,496.9h9.9l-4.9-14.3-5,14.3Z"/>
  </g>
</svg>