<?xml version="1.0" encoding="UTF-8"?>
<svg id="Layer_1" xmlns="http://www.w3.org/2000/svg" xmlns:xlink="http://www.w3.org/1999/xlink" version="1.1" viewBox="0 0 1603.8 542.6">
  <!-- Generator: Adobe Illustrator 30.1.0, SVG Export Plug-In . SVG Version: 2.1.1 Build 136)  -->
  <defs>
    <style>
      .st0 {
        fill-rule: evenodd;
      }

      .st0, .st1 {
        fill: #fff;
      }

      .st2 {
        fill: url(#linear-gradient2);
      }

      .st3 {
        fill: url(#linear-gradient1);
      }

      .st4 {
        fill: url(#linear-gradient);
      }
    </style>
    <linearGradient id="linear-gradient" x1="141.3" y1="271.3" x2="284.8" y2="271.3" gradientUnits="userSpaceOnUse">
      <stop offset="0" stop-color="#a1724f"/>
      <stop offset="1" stop-color="#edba9a"/>
    </linearGradient>
    <linearGradient id="linear-gradient1" x1="0" y1="244.5" x2="549.8" y2="244.5" xlink:href="#linear-gradient"/>
    <linearGradient id="linear-gradient2" x1="6.7" y1="467" x2="549.9" y2="467" xlink:href="#linear-gradient"/>
  </defs>
  <g>
    <path class="st1" d="M616.2,271.3v-.6c8.5,0,12.2-1.6,12.2-7.3v-108.8c0-5.7-3.7-7.5-12.2-7.5v-.4h36.6v.4c-8.5,0-12.2,1.8-12.2,7.5v114.7h24.2c22.8,0,27.1-12.2,30.9-24.8l1.6.6-6.3,26.2h-74.8Z"/>
    <path class="st1" d="M701.4,271.3v-.6c8.3,0,12-1.6,12-7.3v-108.8c0-5.7-3.7-7.5-12-7.5v-.4h36.4v.4c-8.5,0-12.2,1.8-12.2,7.5v108.8c0,5.7,3.7,7.3,12.2,7.3v.6h-36.4Z"/>
    <path class="st1" d="M741.9,271.3v-.6c8.5,0,12.2-1.6,12.2-7.3v-108.8c0-5.7-3.7-7.5-12.2-7.5v-.4h36.6v.4c-8.5,0-12.2,1.8-12.2,7.5v114.7h24.2c22.8,0,27.1-12.2,30.9-24.8l1.6.6-6.3,26.2h-74.8Z"/>
    <path class="st1" d="M827.1,271.3v-.6c8.3,0,12-1.6,12-7.3v-108.8c0-5.7-3.7-7.5-12-7.5v-.4h36.4v.4c-8.5,0-12.2,1.8-12.2,7.5v108.8c0,5.7,3.7,7.3,12.2,7.3v.6h-36.4Z"/>
    <path class="st1" d="M861.5,270.6c7.5,0,13-1.6,14.8-7.3l41.1-118.8,40.9,118.8c1.8,5.7,7.9,7.3,14.8,7.3v.6h-37.8v-.6c8.3,0,11.4-1.6,9.6-7.3l-13.4-39h-39l-13.4,39c-1.8,5.7,1.2,7.3,9.6,7.3v.6h-27v-.6ZM893.2,222.2h37.4l-18.7-54.5-18.7,54.5Z"/>
    <path class="st1" d="M971.1,146.6h25.2l44.7,91.1v-83.2c0-5.7-3.9-7.5-12.2-7.5v-.4h26.2v.4c-8.3,0-12,1.8-12,7.5v118.8l-58-117.8v107.8c0,5.7,3.7,7.3,12.2,7.3v.6h-26.2v-.6c8.3,0,12-1.6,12-7.3v-108.8c0-5.7-3.7-7.5-12-7.5v-.4Z"/>
    <path class="st1" d="M1071.4,263.3v-108.8c0-5.7-3.7-7.5-12.2-7.5v-.4h70.8l6.3,26.2-1.6.6c-3.9-12.6-8.1-24.8-30.9-24.8h-20.1v41.9h23.4c5.7,0,7.5-3.7,7.5-12h1.4v26.2h-1.4c0-8.3-1.8-12.2-7.5-12.2h-23.4v76.7h24.2c22.8,0,27-12.2,30.9-24.8l1.6.6-6.3,26.2h-74.8v-.6c8.5,0,12.2-1.6,12.2-7.3Z"/>
    <path class="st1" d="M1205.4,270.6c8.3,0,12-1.6,12-7.3v-108.8c0-5.7-3.7-7.5-12-7.5v-.4h70.6l6.3,26.2-1.6.6c-3.9-12.6-8.1-24.8-30.9-24.8h-20.1v41.9h23.4c5.7,0,7.5-3.7,7.5-12h1.6v26.2h-1.6c0-8.3-1.8-12.2-7.5-12.2h-23.4v70.8c0,5.7,3.7,7.3,12.2,7.3v.6h-36.4v-.6Z"/>
    <path class="st1" d="M1298.1,255.2c4.3,0,7.7,3.5,7.7,7.9s-3.5,7.7-7.7,7.7-7.7-3.5-7.7-7.7,3.5-7.9,7.7-7.9Z"/>
    <path class="st1" d="M616.2,433.2l57.2-122.6h-18.5c-22.8,0-27,12.2-30.9,24.8l-1.6-.6,6.3-26.2h58.6v2l-56.1,120.6h21.6c22.8,0,27.1-12.2,31.1-24.8l1.4.6-6.1,26.2h-62.8Z"/>
    <path class="st1" d="M685.1,432.6c7.5,0,13-1.6,14.8-7.3l41.1-118.8,40.9,118.8c1.8,5.7,7.9,7.3,14.8,7.3v.6h-37.8v-.6c8.3,0,11.4-1.6,9.6-7.3l-13.4-39h-39l-13.4,39c-1.8,5.7,1.2,7.3,9.6,7.3v.6h-27.1v-.6ZM716.9,384.2h37.4l-18.7-54.5-18.7,54.5Z"/>
    <path class="st1" d="M808,400.8c4.9,0,8.1,3.1,8.3,7.5.4,7.9-6.3,9.8-7.3,13.6-1.4,5.7,6.9,11.2,15.7,11.2s16.1-6.5,16.1-22.6v-92.5c0-5.7-4.3-9.2-19.3-9.2v-.4h43.5v.4c-8.3,0-12,1.8-12,7.5v88.1c0,16.1-11.4,30.7-28.3,30.7s-25.8-11-25.8-23.8,4.3-10.6,9.2-10.6Z"/>
    <path class="st1" d="M858.8,432.6c7.5,0,13-1.6,14.8-7.3l41.1-118.8,40.9,118.8c1.8,5.7,7.9,7.3,14.8,7.3v.6h-37.8v-.6c8.3,0,11.4-1.6,9.6-7.3l-13.4-39h-39l-13.4,39c-1.8,5.7,1.2,7.3,9.6,7.3v.6h-27v-.6ZM890.6,384.2h37.4l-18.7-54.5-18.7,54.5Z"/>
    <path class="st1" d="M964.4,370.7c0-37.2,24.6-64.3,60.2-64.3s29.1,10.2,32.9,8.5c2.6-.8.2-9.2.2-9.2l1.6-.6,9.8,29.5-1.8.8s-10.4-26-40.7-26-50,23.6-50,61.2,21.8,61.4,50,61.4,42.9-26.4,42.9-26.4l1.6,1.2s-13,28.3-46.6,28.3-60.2-27.1-60.2-64.5Z"/>
    <path class="st1" d="M1075.2,433.2l57.2-122.6h-18.5c-22.8,0-27,12.2-30.9,24.8l-1.6-.6,6.3-26.2h58.6v2l-56.1,120.6h21.6c22.8,0,27.1-12.2,31.1-24.8l1.4.6-6.1,26.2h-62.8Z"/>
    <path class="st1" d="M1154.3,308.5h36.4v.4c-8.3,0-12,1.8-12,7.5v44.5l40.5-44.5c5.1-5.7,3.1-7.5-5.3-7.5v-.4h27.5v.4c-7.5,0-14,1.8-19.1,7.5l-25.8,28.3,39.7,80.5c2.8,5.7,7.3,7.3,15.9,7.3v.6h-38.8v-.6c7.7,0,11.2-1.6,8.3-7.3l-34.4-70-8.3,9.2v60.8c0,5.7,3.7,7.3,12,7.3v.6h-36.4v-.6c8.3,0,12.2-1.6,12.2-7.3v-108.8c0-5.7-3.9-7.5-12.2-7.5v-.4Z"/>
    <path class="st1" d="M1306.1,306.5c35.6,0,62.4,25.2,62.4,64.3s-26.8,64.5-62.4,64.5-62.2-25.2-62.2-64.5,26.8-64.3,62.2-64.3ZM1256,370.7c0,40.9,21.8,62.4,50,62.4s50.2-21.6,50.2-62.4-21.8-62.2-50.2-62.2-50,21.6-50,62.2Z"/>
    <path class="st1" d="M1384.6,379.7c4.3,27.9,19.7,53.5,43.1,53.5s23.8-9.2,23.8-26.4c0-39-62.6-40.1-62.6-75s10.2-25.2,31.1-25.2,23,8.1,25.8,7.1c2-.6.4-7.9.4-7.9l1.6-.4,5.7,29.5-2,.8s-8.7-27-29.5-27-20.9,8.3-20.9,19.1c0,28.3,62.6,32.7,62.6,75s-12,32.5-37,32.5-35.2-22.2-39.7-20.7c-2.8.6-2.8,7.5-2.8,7.5h-1.4v-42.1l1.8-.2Z"/>
    <path class="st1" d="M1469.8,308.5h36.4v.4c-8.3,0-12,1.8-12,7.5v44.5l40.5-44.5c5.1-5.7,3.1-7.5-5.3-7.5v-.4h27.5v.4c-7.5,0-14,1.8-19.1,7.5l-25.8,28.3,39.7,80.5c2.8,5.7,7.3,7.3,15.9,7.3v.6h-38.8v-.6c7.7,0,11.2-1.6,8.3-7.3l-34.4-70-8.3,9.2v60.8c0,5.7,3.7,7.3,12,7.3v.6h-36.4v-.6c8.3,0,12.2-1.6,12.2-7.3v-108.8c0-5.7-3.9-7.5-12.2-7.5v-.4Z"/>
    <path class="st1" d="M1565.4,433.2v-.6c8.3,0,12-1.6,12-7.3v-108.8c0-5.7-3.7-7.5-12-7.5v-.4h36.4v.4c-8.5,0-12.2,1.8-12.2,7.5v108.8c0,5.7,3.7,7.3,12.2,7.3v.6h-36.4Z"/>
  </g>
  <g>
    <path class="st1" d="M624.1,488.5l7.4,21.2c.4,1.1.9,1.7,1.4,2v.2h-5.1l-3.5-10h-6.8c-1.5,5.3-1.3,8.7.5,9.8v.2h-5.4l7.6-21.9-.5-1.5h4.4ZM618.1,500.5h5.8l-2.9-8.4-2.9,8.4Z"/>
    <path class="st1" d="M660.4,488.6v-.2h7.2c7.2,0,11.8,4.5,11.8,11.5s-4.8,11.9-12.2,11.9h-6.7v-.2c.6-.5.9-1.1.9-2.2v-18.6c0-1.1-.2-1.8-.9-2.2ZM667.2,510.5c5.2,0,7.9-3.2,7.9-9.1s-3.6-11.5-8.8-11.5h-.8v20.6h1.7Z"/>
    <path class="st1" d="M706.3,490.6c-.4-1.1-.9-1.7-1.4-2v-.2h5.1l6.9,19.8,3.2-9.3c1.7-5.6,1.6-9.2-.3-10.3v-.2h5.4l-7.6,21.9.5,1.5h-4.4l-7.4-21.2Z"/>
    <path class="st1" d="M762.6,488.1c6.7,0,11.7,5.2,11.7,12s-5,12-11.7,12-11.7-5.2-11.7-12,5-12,11.7-12ZM764,510.7c3.6,0,6-3.2,6-8.5s-3.9-12.5-8.9-12.5-6,3.2-6,8.5,3.9,12.5,8.9,12.5Z"/>
    <path class="st1" d="M819.2,494.7h-.2c-.7-3.2-3-5.1-6.2-5.1s-6.8,2.7-6.8,8.8,3.4,11.6,8.4,11.6,4.8-1.2,5.7-3.2l.5.3c-1.2,3.1-4.5,5.2-8.3,5.2-6,0-10.6-5.2-10.6-11.9s5-12.1,11.6-12.1,4.4.5,6.2,1.4l-.4,5.2Z"/>
    <path class="st1" d="M858.9,488.5l7.4,21.2c.4,1.1.9,1.7,1.4,2v.2h-5.1l-3.5-10h-6.8c-1.5,5.3-1.3,8.7.5,9.8v.2h-5.4l7.6-21.9-.5-1.5h4.4ZM852.9,500.5h5.8l-2.9-8.4-2.9,8.4Z"/>
    <path class="st1" d="M910.5,494.7h-.2c-.7-3.2-3-5.1-6.2-5.1s-6.8,2.7-6.8,8.8,3.4,11.6,8.4,11.6,4.8-1.2,5.7-3.2l.5.3c-1.2,3.1-4.5,5.2-8.3,5.2-6,0-10.6-5.2-10.6-11.9s5-12.1,11.6-12.1,4.4.5,6.2,1.4l-.4,5.2Z"/>
    <path class="st1" d="M939.9,488.6v-.2h5.8v.2c-.6.5-.9,1.1-.9,2.2v18.6c0,1.1.2,1.8.9,2.2v.2h-5.8v-.2c.6-.5.9-1.1.9-2.2v-18.6c0-1.1-.2-1.8-.9-2.2Z"/>
    <path class="st1" d="M984.7,488.5l7.4,21.2c.4,1.1.9,1.7,1.4,2v.2h-5.1l-3.5-10h-6.8c-1.5,5.3-1.3,8.7.5,9.8v.2h-5.4l7.6-21.9-.5-1.5h4.4ZM978.7,500.5h5.8l-2.9-8.4-2.9,8.4Z"/>
    <path class="st1" d="M1071.8,489.8l-1.4,4.8h-.2c-.5-3.3-2-5.1-4-5.1s-2.7,1.2-2.7,3.5.9,4.6,2.8,7.7l2.5-4.5c3.6,0,5.6,1.7,5.6,4.5s-1.1,4.3-3.2,6.4c1.4,1.3,2.8,2,4,2s1.8-.5,2.1-1.5h.3c-.2,2.8-1.8,4.5-4.4,4.5s-3.3-.8-5-2.1c-1.4,1.4-3.3,2.1-5.5,2.1-4.5,0-7.7-2.9-7.7-6.4s2.1-5.3,5.6-6.4c-.9-2-1.3-3.9-1.3-5.4,0-3.5,2.5-5.9,6.7-5.9s4.2.6,5.8,1.7ZM1061.2,500.5c-1.3.6-1.8,1.9-1.8,3.7,0,3.5,1.9,6.2,4.9,6.2s2.2-.4,3.1-1.1c-2.5-2.3-4.7-5.7-6.2-8.8ZM1072.5,502.1c0-1.6-1-2.4-2.9-2.4s-2.3.4-3.2,1.2c1.1,1.9,2.4,3.8,3.9,5.4,1.4-1.5,2.1-2.9,2.1-4.2Z"/>
    <path class="st1" d="M1156.6,494.7h-.2c-.7-3.2-3-5.1-6.2-5.1s-6.8,2.7-6.8,8.8,3.4,11.6,8.4,11.6,4.8-1.2,5.7-3.2l.5.3c-1.2,3.1-4.5,5.2-8.3,5.2-6,0-10.6-5.2-10.6-11.9s5-12.1,11.6-12.1,4.4.5,6.2,1.4l-.4,5.2Z"/>
    <path class="st1" d="M1196.9,488.1c6.7,0,11.7,5.2,11.7,12s-5,12-11.7,12-11.7-5.2-11.7-12,5-12,11.7-12ZM1198.4,510.7c3.6,0,6-3.2,6-8.5s-3.9-12.5-8.9-12.5-6,3.2-6,8.5,3.9,12.5,8.9,12.5Z"/>
    <path class="st1" d="M1240.3,511.7v.2h-3.8v-.2c.9-.6,1.2-1.8,1.2-4.1v-14.9c0-2.2-.3-3.5-1.2-4.1v-.2h4.7l11,17.7v-13.5c0-2.2-.3-3.5-1.2-4.1v-.2h3.8v.2c-.9.6-1.2,1.8-1.2,4.1v19.2h-2.8l-11.7-19v14.7c0,2.2.3,3.5,1.2,4.1Z"/>
    <path class="st1" d="M1290.4,488.1c2.4,0,4.7.6,6.5,1.7l-1.4,4.8h-.2c-.9-3.3-2.7-5.1-5.4-5.1s-3.8,1.4-3.8,3.4c0,5.4,11.2,5.1,11.2,12.7s-3.2,6.6-8.2,6.6-4.7-.6-6.5-1.7l1.4-4.8h.2c.9,3.3,2.8,5.1,5.5,5.1s4-1.4,4-3.5c0-5.6-11.1-5.3-11.1-12.8s3.1-6.4,7.9-6.4Z"/>
    <path class="st1" d="M1326.4,491.3c.3-1.5.2-2.4-.2-2.7v-.2h5.7v.2c-1.6.9-2.4,11.3-2.4,13.2,0,5.8,2.5,8.8,6.3,8.7h1.2c.6,0,.9-.4.9-1.1v-18.5c0-1.1-.2-1.8-.9-2.2v-.2h5.8v.2c-.6.5-.9,1.1-.9,2.2v18.6c0,1.1.2,1.8.9,2.2v.2h-4c-2,0-3.3.3-4.9.3-5.5.1-8.9-3.2-8.9-10.2s.5-6.3,1.4-10.7Z"/>
    <path class="st1" d="M1371,488.6v-.2h5.8v.2c-.6.5-.9,1.1-.9,2.2v19.6h2.1c3.8,0,6.3-1.4,7.4-4.1h.2l-.3,5.5h-14.3v-.2c.6-.5.9-1.1.9-2.2v-18.6c0-1.1-.2-1.8-.9-2.2Z"/>
    <path class="st1" d="M1416.7,489.9c-3.3,0-5.3,1.2-6.3,3.8h-.2l.5-5.2h16.1l.5,5.2h-.2c-1-2.6-3.1-3.8-6.3-3.8v19.6c0,1.1.2,1.8.9,2.2v.2h-5.8v-.2c.6-.5.9-1.1.9-2.2v-19.6Z"/>
    <path class="st1" d="M1465.5,488.1c6.7,0,11.7,5.2,11.7,12s-5,12-11.7,12-11.7-5.2-11.7-12,5-12,11.7-12ZM1467,510.7c3.6,0,6-3.2,6-8.5s-3.9-12.5-8.9-12.5-6,3.2-6,8.5,3.9,12.5,8.9,12.5Z"/>
    <path class="st1" d="M1505.1,488.6v-.2h8.3c5.6,0,8.6,2,8.6,5.8s-2.3,5.8-6.2,6.9l5.5,8.4c.8,1.1,1.4,1.8,2,2v.2h-1.8c-2.6,0-4.3-.9-5.5-2.9l-4.6-7.1c-.3,0-.6,0-.9,0h-.4v7.5c0,1.1.2,1.8.9,2.2v.2h-5.8v-.2c.6-.5.9-1.1.9-2.2v-18.6c0-1.1-.2-1.8-.9-2.2ZM1510.4,500.5c4.7,0,7.2-1.8,7.2-5.2s-2.4-5.5-6.1-5.5h-1.5v10.7h.3Z"/>
    <path class="st1" d="M1550.8,488.6v-.2h5.8v.2c-.6.5-.9,1.1-.9,2.2v18.6c0,1.1.2,1.8.9,2.2v.2h-5.8v-.2c.6-.5.9-1.1.9-2.2v-18.6c0-1.1-.2-1.8-.9-2.2Z"/>
    <path class="st1" d="M1595.6,488.5l7.4,21.2c.4,1.1.9,1.7,1.4,2v.2h-5.1l-3.5-10h-6.8c-1.5,5.3-1.3,8.7.5,9.8v.2h-5.4l7.6-21.9-.5-1.5h4.4ZM1589.6,500.5h5.8l-2.9-8.4-2.9,8.4Z"/>
  </g>
  <g>
    <path class="st0" d="M439.5,78.4h33.4c1.2-3.8,3.1-7.3,5.6-10.3h-44.6c2.5,3,4.4,6.5,5.6,10.3"/>
    <rect class="st1" x="461.3" y="83.8" width="10.3" height="408"/>
    <rect class="st1" x="440.8" y="83.8" width="10.3" height="408"/>
    <rect class="st1" x="409.8" y="47.5" width="95.4" height="10.3"/>
  </g>
  <g>
    <path class="st4" d="M282,365.4l2.8-44.3h-1.4c-9.1,22.2-28.8,33.2-59.5,33.2h-38.5l96.7-177.2h-133.8l-4.2,41.5h1.4c7.8-20.8,26.6-30.5,59.5-30.5h33l-96.7,177.2h140.7Z"/>
    <path class="st3" d="M548.7,0l1.1,489h-31.9V32.5H39.3l.7,298.5v23.3h17c30.7,0,50.4-11.1,59.5-33.2h1.4l-2.8,44.3H0v-1.4c4.2-3.2,6.2-7.3,6.7-13.9V0"/>
    <polygon class="st2" points="469.9 511.3 469.9 511.2 39.3 511.2 39.3 391.4 6.7 391.4 6.7 541.9 549.9 542.6 549.8 511.3 469.9 511.3"/>
  </g>
  <rect class="st1" x="441" y="498.1" width="156.6" height="4.8"/>
</svg>