<?xml version="1.0" encoding="UTF-8"?>
<svg id="Object" xmlns="http://www.w3.org/2000/svg" xmlns:xlink="http://www.w3.org/1999/xlink" version="1.1" viewBox="0 0 2811.2 860.5">
  <!-- Generator: Adobe Illustrator 30.0.0, SVG Export Plug-In . SVG Version: 2.1.1 Build 123)  -->
  <defs>
    <style>
      .st0 {
        fill-rule: evenodd;
      }

      .st0, .st1 {
        fill: #fff;
      }

      .st2 {
        fill: url(#linear-gradient);
      }
    </style>
    <linearGradient id="linear-gradient" x1="0" y1="430.3" x2="872.2" y2="430.3" gradientUnits="userSpaceOnUse">
      <stop offset="0" stop-color="#957152"/>
      <stop offset="1" stop-color="#e0ba9b"/>
    </linearGradient>
  </defs>
  <g>
    <path class="st1" d="M985.4,171.5v-1.6h54.8v1.6c-5.8,4.5-8.1,10.3-8.1,21v183.9h19.7c35.8,0,58.7-12.9,69.4-38.7h1.6l-3.2,51.6h-134.2v-1.6c5.8-4.5,8.1-10.3,8.1-21v-174.2c0-10.6-2.3-16.5-8.1-21Z"/>
    <path class="st1" d="M1143.8,171.5v-1.6h54.8v1.6c-5.8,4.5-8.1,10.3-8.1,21v174.2c0,10.6,2.3,16.5,8.1,21v1.6h-54.8v-1.6c5.8-4.5,8.1-10.3,8.1-21v-174.2c0-10.6-2.3-16.5-8.1-21Z"/>
    <path class="st1" d="M1221.2,171.5v-1.6h54.8v1.6c-5.8,4.5-8.1,10.3-8.1,21v183.9h19.7c35.8,0,58.7-12.9,69.4-38.7h1.6l-3.2,51.6h-134.2v-1.6c5.8-4.5,8.1-10.3,8.1-21v-174.2c0-10.6-2.3-16.5-8.1-21Z"/>
    <path class="st1" d="M1379.6,171.5v-1.6h54.8v1.6c-5.8,4.5-8.1,10.3-8.1,21v174.2c0,10.6,2.3,16.5,8.1,21v1.6h-54.8v-1.6c5.8-4.5,8.1-10.3,8.1-21v-174.2c0-10.6-2.3-16.5-8.1-21Z"/>
    <path class="st1" d="M1558,169.8l69,199c4.2,10.3,8.4,16.1,13.6,18.7v1.6h-47.4l-32.6-93.5h-63.6c-14.2,49.7-12.6,81.6,4.5,91.9v1.6h-51l71.3-205.5-4.8-13.9h41ZM1501.5,282.8h54.5l-27.1-79-27.4,79Z"/>
    <path class="st1" d="M1692.1,387.6v1.6h-35.5v-1.6c8.1-5.5,11.3-17.1,11.3-38.1v-140c0-21-3.2-32.6-11.3-38.1v-1.6h43.9l102.9,166.5v-126.8c0-21-3.2-32.6-11.3-38.1v-1.6h35.5v1.6c-8.1,5.5-11.3,17.1-11.3,38.1v179.7h-25.8l-109.7-177.7v138.1c0,21,3.2,32.6,11.3,38.1Z"/>
    <path class="st1" d="M1850.2,171.5v-1.6h129.4l4.8,48.4h-1.6c-9-24.2-31-35.5-69.4-35.5h-16.4v83.9h27.4c20.6,0,31.6-4.2,35.5-12.9h1.6v38.7h-1.6c-3.9-8.7-14.8-12.9-35.5-12.9h-27.4v96.8h19.7c35.8,0,58.7-12.9,69.4-38.7h1.6l-3.2,51.6h-134.2v-1.6c5.8-4.5,8.1-10.3,8.1-21v-174.2c0-10.6-2.3-16.5-8.1-21Z"/>
    <path class="st1" d="M1096.4,439.6h-38.4c-38.4,0-60.3,11.3-69.4,35.5h-1.6l4.8-48.4h155.8l-112.6,206.5h44.8c35.8,0,58.7-12.9,69.4-38.7h1.6l-3.2,51.6h-163.9l112.6-206.5Z"/>
    <path class="st1" d="M1272.8,426.6l69,199c4.2,10.3,8.4,16.1,13.6,18.7v1.6h-47.4l-32.6-93.5h-63.6c-14.2,49.7-12.6,81.6,4.5,91.9v1.6h-51l71.3-205.5-4.8-13.9h41ZM1216.3,539.6h54.5l-27.1-79-27.4,79Z"/>
    <path class="st1" d="M1389.2,592.1v-142.9c0-10.6-2.3-16.5-8.1-21v-1.6h54.8v1.6c-5.8,4.5-8.1,10.3-8.1,21v142.9c0,44.8-27.1,76.5-65.8,76.5l-.3-1.9c19.7-8.4,27.4-29.4,27.4-74.5Z"/>
    <path class="st1" d="M1559.6,426.6l69,199c4.2,10.3,8.4,16.1,13.6,18.7v1.6h-47.4l-32.6-93.5h-63.6c-14.2,49.7-12.6,81.6,4.5,91.9v1.6h-51l71.3-205.5-4.8-13.9h41ZM1503.1,539.6h54.5l-27.1-79-27.4,79Z"/>
    <path class="st1" d="M1801.8,484.7h-1.6c-6.1-30.3-27.7-48.1-57.7-48.1s-63.6,25.2-63.6,82.9,31.9,108.4,78.4,108.4,44.8-11.6,53.9-30.3l4.5,2.9c-11.3,29.4-42.3,48.7-77.7,48.7-56.1,0-99-48.7-99-111.9s46.8-113.9,109-113.9,41.3,4.5,57.7,12.9l-3.9,48.4Z"/>
    <path class="st1" d="M1942.8,439.6h-38.4c-38.4,0-60.3,11.3-69.4,35.5h-1.6l4.8-48.4h155.8l-112.6,206.5h44.8c35.8,0,58.7-12.9,69.4-38.7h1.6l-3.2,51.6h-163.9l112.6-206.5Z"/>
    <path class="st1" d="M2026.3,449.2c0-10.6-2.3-16.5-8.1-21v-1.6h54.8v1.6c-5.8,4.5-8.1,10.3-8.1,21v174.2c0,10.6,2.3,16.5,8.1,21v1.6h-54.8v-1.6c5.8-4.5,8.1-10.3,8.1-21v-174.2ZM2111.2,479.2c21.9-29.4,20.3-47.1,8.7-51v-1.6h50.6l-68.7,84.8,68.4,115.8c6.1,9.4,10.6,14.5,15.8,17.1v1.6h-16.8c-24.2,0-37.7-7.4-49-26.8l-51.6-87.7,42.6-52.3Z"/>
    <path class="st1" d="M2286,423.4c62.6,0,109.7,48.4,109.7,112.9s-47.1,112.9-109.7,112.9-109.7-48.4-109.7-112.9,47.1-112.9,109.7-112.9ZM2299.6,634.7c33.9,0,56.5-30,56.5-79.4s-36.5-117.4-83.6-117.4-56.5,30-56.5,79.4,36.5,117.4,83.6,117.4Z"/>
    <path class="st1" d="M2485.7,423.4c22.6,0,44.2,5.8,61,16.1l-13.5,45.2h-1.6c-8.4-31.3-25.5-48.1-50.6-48.1s-35.8,12.9-35.8,31.6c0,51,104.8,47.7,104.8,119.4s-29.7,61.6-77.1,61.6-44.2-5.8-61-16.1l13.5-45.2h1.6c8.4,31.3,26.1,48.1,51.9,48.1s37.4-13.2,37.4-32.9c0-52.9-104.5-49.7-104.5-119.7s28.7-60,73.9-60Z"/>
    <path class="st1" d="M2577.3,449.2c0-10.6-2.3-16.5-8.1-21v-1.6h54.8v1.6c-5.8,4.5-8.1,10.3-8.1,21v174.2c0,10.6,2.3,16.5,8.1,21v1.6h-54.8v-1.6c5.8-4.5,8.1-10.3,8.1-21v-174.2ZM2662.1,479.2c21.9-29.4,20.3-47.1,8.7-51v-1.6h50.6l-68.7,84.8,68.4,115.8c6.1,9.4,10.6,14.5,15.8,17.1v1.6h-16.8c-24.2,0-37.7-7.4-49-26.8l-51.6-87.7,42.6-52.3Z"/>
    <path class="st1" d="M2753.1,428.3v-1.6h54.8v1.6c-5.8,4.5-8.1,10.3-8.1,21v174.2c0,10.6,2.3,16.5,8.1,21v1.6h-54.8v-1.6c5.8-4.5,8.1-10.3,8.1-21v-174.2c0-10.6-2.3-16.5-8.1-21Z"/>
  </g>
  <g>
    <path class="st1" d="M996.3,710.6l13.6,39.3c.8,2,1.7,3.2,2.7,3.7v.3h-9.4l-6.4-18.5h-12.5c-2.8,9.8-2.5,16.1.9,18.2v.3h-10.1l14.1-40.6-1-2.7h8.1ZM985.1,732.9h10.8l-5.3-15.6-5.4,15.6Z"/>
    <path class="st1" d="M1063.5,711v-.3h13.2c13.4,0,21.8,8.3,21.8,21.2s-9,22.1-22.6,22.1h-12.5v-.3c1.1-.9,1.6-2,1.6-4.1v-34.4c0-2.1-.4-3.2-1.6-4.1ZM1075.9,751.4c9.6,0,14.6-5.9,14.6-16.9s-6.6-21.3-16.4-21.3h-1.5v38.2h3.2Z"/>
    <path class="st1" d="M1148.4,714.6c-.8-2-1.7-3.2-2.7-3.7v-.3h9.4l12.7,36.6,5.9-17.2c3.2-10.4,2.9-17-.6-19.1v-.3h10.1l-14.1,40.6,1,2.7h-8.1l-13.6-39.3Z"/>
    <path class="st1" d="M1252.6,710c12.4,0,21.7,9.6,21.7,22.3s-9.3,22.3-21.7,22.3-21.7-9.6-21.7-22.3,9.3-22.3,21.7-22.3ZM1255.3,751.7c6.7,0,11.1-5.9,11.1-15.7s-7.2-23.2-16.5-23.2-11.1,5.9-11.1,15.7,7.2,23.2,16.5,23.2Z"/>
    <path class="st1" d="M1357.4,722.1h-.3c-1.2-6-5.5-9.5-11.4-9.5s-12.5,5-12.5,16.4,6.3,21.4,15.5,21.4,8.9-2.3,10.6-6l.9.6c-2.2,5.8-8.3,9.6-15.3,9.6-11.1,0-19.6-9.6-19.6-22.1s9.2-22.5,21.5-22.5,8.2.9,11.4,2.5l-.8,9.6Z"/>
    <path class="st1" d="M1431,710.6l13.6,39.3c.8,2,1.7,3.2,2.7,3.7v.3h-9.4l-6.4-18.5h-12.5c-2.8,9.8-2.5,16.1.9,18.2v.3h-10.1l14.1-40.6-1-2.7h8.1ZM1419.8,732.9h10.8l-5.3-15.6-5.4,15.6Z"/>
    <path class="st1" d="M1526.5,722.1h-.3c-1.2-6-5.5-9.5-11.4-9.5s-12.5,5-12.5,16.4,6.3,21.4,15.5,21.4,8.9-2.3,10.6-6l.9.6c-2.2,5.8-8.3,9.6-15.3,9.6-11.1,0-19.6-9.6-19.6-22.1s9.2-22.5,21.5-22.5,8.2.9,11.4,2.5l-.8,9.6Z"/>
    <path class="st1" d="M1580.9,711v-.3h10.8v.3c-1.1.9-1.6,2-1.6,4.1v34.4c0,2.1.4,3.2,1.6,4.1v.3h-10.8v-.3c1.1-.9,1.6-2,1.6-4.1v-34.4c0-2.1-.4-3.2-1.6-4.1Z"/>
    <path class="st1" d="M1663.8,710.6l13.6,39.3c.8,2,1.7,3.2,2.7,3.7v.3h-9.4l-6.4-18.5h-12.5c-2.8,9.8-2.5,16.1.9,18.2v.3h-10.1l14.1-40.6-1-2.7h8.1ZM1652.7,732.9h10.8l-5.3-15.6-5.4,15.6Z"/>
    <path class="st1" d="M1825.2,713.1l-2.7,8.9h-.3c-.9-6.1-3.6-9.5-7.4-9.5s-5,2.2-5,6.6,1.7,8.5,5.1,14.2l4.6-8.3c6.7,0,10.4,3.2,10.4,8.4s-2.1,8-6,11.8c2.6,2.5,5.1,3.8,7.5,3.8s3.2-1,3.9-2.7h.6c-.4,5.2-3.3,8.3-8.1,8.3s-6.2-1.4-9.3-3.9c-2.6,2.6-6.1,3.9-10.2,3.9-8.3,0-14.3-5.3-14.3-11.8s3.9-9.8,10.4-11.8c-1.6-3.8-2.4-7.1-2.4-9.9,0-6.5,4.6-11,12.4-11s7.8,1.1,10.8,3.1ZM1805.4,732.9c-2.4,1.1-3.3,3.5-3.3,6.9,0,6.6,3.4,11.5,9.1,11.5s4.1-.8,5.7-2.1c-4.7-4.3-8.8-10.6-11.5-16.4ZM1826.4,735.9c0-2.9-1.9-4.5-5.3-4.5s-4.3.8-5.9,2.3c2.1,3.5,4.5,7,7.3,10,2.6-2.9,3.9-5.3,3.9-7.8Z"/>
    <path class="st1" d="M1982.1,722.1h-.3c-1.2-6-5.5-9.5-11.4-9.5s-12.5,5-12.5,16.4,6.3,21.4,15.5,21.4,8.9-2.3,10.6-6l.9.6c-2.2,5.8-8.3,9.6-15.3,9.6-11.1,0-19.6-9.6-19.6-22.1s9.2-22.5,21.5-22.5,8.2.9,11.4,2.5l-.8,9.6Z"/>
    <path class="st1" d="M2056.8,710c12.4,0,21.7,9.6,21.7,22.3s-9.3,22.3-21.7,22.3-21.7-9.6-21.7-22.3,9.3-22.3,21.7-22.3ZM2059.5,751.7c6.7,0,11.1-5.9,11.1-15.7s-7.2-23.2-16.5-23.2-11.1,5.9-11.1,15.7,7.2,23.2,16.5,23.2Z"/>
    <path class="st1" d="M2137.1,753.6v.3h-7v-.3c1.6-1.1,2.2-3.4,2.2-7.5v-27.6c0-4.1-.6-6.4-2.2-7.5v-.3h8.7l20.3,32.9v-25c0-4.1-.6-6.4-2.2-7.5v-.3h7v.3c-1.6,1.1-2.2,3.4-2.2,7.5v35.5h-5.1l-21.7-35.1v27.3c0,4.1.6,6.4,2.2,7.5Z"/>
    <path class="st1" d="M2230,710c4.5,0,8.7,1.1,12,3.2l-2.7,8.9h-.3c-1.7-6.2-5-9.5-10-9.5s-7.1,2.5-7.1,6.2c0,10.1,20.7,9.4,20.7,23.6s-5.9,12.2-15.2,12.2-8.7-1.1-12-3.2l2.7-8.9h.3c1.7,6.2,5.2,9.5,10.3,9.5s7.4-2.6,7.4-6.5c0-10.4-20.6-9.8-20.6-23.6s5.7-11.8,14.6-11.8Z"/>
    <path class="st1" d="M2296.5,715.9c.6-2.7.4-4.4-.3-5v-.3h10.5v.3c-2.9,1.7-4.5,21-4.5,24.4,0,10.8,4.6,16.3,11.7,16.1h2.2c1.1,0,1.6-.7,1.6-2.1v-34.3c0-2.1-.4-3.2-1.6-4.1v-.3h10.8v.3c-1.1.9-1.6,2-1.6,4.1v34.4c0,2.1.4,3.2,1.6,4.1v.3h-7.4c-3.6,0-6.1.6-9.1.6-10.1.2-16.6-6-16.6-18.9s.9-11.6,2.6-19.7Z"/>
    <path class="st1" d="M2379.1,711v-.3h10.8v.3c-1.1.9-1.6,2-1.6,4.1v36.3h3.9c7.1,0,11.6-2.5,13.7-7.6h.3l-.6,10.2h-26.5v-.3c1.1-.9,1.6-2,1.6-4.1v-34.4c0-2.1-.4-3.2-1.6-4.1Z"/>
    <path class="st1" d="M2463.8,713.2c-6.1,0-9.9,2.2-11.7,7h-.3l1-9.6h29.8l1,9.6h-.3c-1.8-4.8-5.7-7-11.7-7v36.3c0,2.1.4,3.2,1.6,4.1v.3h-10.8v-.3c1.1-.9,1.6-2,1.6-4.1v-36.3Z"/>
    <path class="st1" d="M2554.2,710c12.4,0,21.7,9.6,21.7,22.3s-9.3,22.3-21.7,22.3-21.7-9.6-21.7-22.3,9.3-22.3,21.7-22.3ZM2556.9,751.7c6.7,0,11.1-5.9,11.1-15.7s-7.2-23.2-16.5-23.2-11.1,5.9-11.1,15.7,7.2,23.2,16.5,23.2Z"/>
    <path class="st1" d="M2627.4,711v-.3h15.3c10.4,0,15.9,3.8,15.9,10.8s-4.2,10.7-11.4,12.8l10.1,15.6c1.5,2.1,2.5,3.2,3.6,3.8v.3h-3.3c-4.8,0-7.9-1.6-10.3-5.3l-8.5-13.2c-.5,0-1.1,0-1.7,0h-.7v13.9c0,2.1.4,3.2,1.6,4.1v.3h-10.8v-.3c1.1-.9,1.6-2,1.6-4.1v-34.4c0-2.1-.4-3.2-1.6-4.1ZM2637.3,733c8.7,0,13.4-3.4,13.4-9.7s-4.5-10.1-11.3-10.1h-2.7v19.8h.6Z"/>
    <path class="st1" d="M2712,711v-.3h10.8v.3c-1.1.9-1.6,2-1.6,4.1v34.4c0,2.1.4,3.2,1.6,4.1v.3h-10.8v-.3c1.1-.9,1.6-2,1.6-4.1v-34.4c0-2.1-.4-3.2-1.6-4.1Z"/>
    <path class="st1" d="M2794.9,710.6l13.6,39.3c.8,2,1.7,3.2,2.7,3.7v.3h-9.4l-6.4-18.5h-12.5c-2.8,9.8-2.5,16.1.9,18.2v.3h-10.1l14.1-40.6-1-2.7h8.1ZM2783.8,732.9h10.8l-5.3-15.6-5.4,15.6Z"/>
  </g>
  <path class="st2" d="M377.4,298.5h-52.3c-52.3,0-82.1,15.4-94.4,48.3h-2.2l6.6-65.9h212.2l-153.3,281.1h61.1c48.8,0,79.9-17.6,94.4-52.7h2.2l-4.4,70.3h-223.1l153.3-281.1ZM10.7,620.7v238.8l861.4,1L870.2,0H10.7s0,555.4,0,555.4c-.8,10.5-4.1,16.8-10.7,22v2.2h182.7l4.4-70.3h-2.2c-14.5,35.1-45.7,52.7-94.4,52.7h-26.8l-.2-37-1.2-473.4h759.1v759.1H62.3v-190H10.7Z"/>
  <g>
    <path class="st0" d="M697,124.3h53c1.9-6,5-11.5,8.9-16.3h-70.7c3.9,4.8,6.9,10.3,8.9,16.3"/>
    <polygon class="st0" points="731.7 140.6 731.7 798.9 748 788.6 748 140.6 731.7 140.6"/>
    <polygon class="st0" points="715.4 798.9 715.4 140.6 699.1 140.6 699.1 788.6 715.4 798.9"/>
    <rect class="st1" x="650" y="75.4" width="151.3" height="16.3"/>
  </g>
</svg>