<?xml version="1.0" encoding="UTF-8"?>
<svg id="Layer_1" xmlns="http://www.w3.org/2000/svg" xmlns:xlink="http://www.w3.org/1999/xlink" version="1.1" viewBox="0 0 1264 351.5">
  <!-- Generator: Adobe Illustrator 30.0.0, SVG Export Plug-In . SVG Version: 2.1.1 Build 123)  -->
  <defs>
    <style>
      .st0 {
        fill: url(#linear-gradient1);
      }

      .st1 {
        fill: url(#linear-gradient);
      }

      .st2 {
        fill: #fff;
      }
    </style>
    <linearGradient id="linear-gradient" x1="538.6" y1="289.8" x2="1257.2" y2="289.8" gradientUnits="userSpaceOnUse">
      <stop offset=".4" stop-color="#b18847"/>
      <stop offset=".7" stop-color="#e5c880"/>
    </linearGradient>
    <linearGradient id="linear-gradient1" x1="0" y1="175.8" x2="484.7" y2="175.8" xlink:href="#linear-gradient"/>
  </defs>
  <g>
    <path class="st2" d="M543.8,147.8c3.9-1.2,5.2-4.1,5.2-14.7v-57.5c0-10.6-1.3-13.5-5.2-14.7v-1.7h20.9v1.7c-4,1.2-5.2,4.1-5.2,14.7v66c0,3.7,2.1,5.8,5.8,5.8h15.3c12.4,0,18.1-3.1,22.6-12.8l1.4.3-.9,14.6h-60v-1.7Z"/>
    <path class="st2" d="M607.4,147.8c3.9-1.2,5.2-4.1,5.2-14.7v-57.5c0-10.6-1.3-13.5-5.2-14.7v-1.7h20.9v1.7c-4,1.2-5.2,4.1-5.2,14.7v57.5c0,10.6,1.2,13.5,5.2,14.7v1.7h-20.9v-1.7Z"/>
    <path class="st2" d="M635,147.8c3.9-1.2,5.2-4.1,5.2-14.7v-57.5c0-10.6-1.3-13.5-5.2-14.7v-1.7h20.9v1.7c-4,1.2-5.2,4.1-5.2,14.7v66c0,3.7,2.1,5.8,5.8,5.8h15.3c12.4,0,18.1-3.1,22.6-12.8l1.4.3-.9,14.6h-60v-1.7Z"/>
    <path class="st2" d="M698.6,147.8c3.9-1.2,5.2-4.1,5.2-14.7v-57.5c0-10.6-1.3-13.5-5.2-14.7v-1.7h20.9v1.7c-4,1.2-5.2,4.1-5.2,14.7v57.5c0,10.6,1.2,13.5,5.2,14.7v1.7h-20.9v-1.7Z"/>
    <path class="st2" d="M717.4,147.8c3.6-1.2,6.8-3.7,10.8-13.5l25.4-62.9c.9-2.3.8-4-.3-6.1l-1.2-2.7,9.7-4.4,31.7,76.2c4,9.7,7.1,12.3,9.8,13.4v1.7h-20v-1.7c4-1.2,3-3.7-1.2-13.4l-7.9-19h-36.4l-7.6,18.8c-3.4,8.4-2.8,12.6,1.5,13.5v1.7h-14.6v-1.7ZM773.6,113.5l-17.7-42.4-17.2,42.4h34.8Z"/>
    <path class="st2" d="M809.7,71.5v56.5c0,14.7,3.1,18.3,8.9,19.9v1.7h-16.1v-1.7c3.9-1.2,5.2-4.1,5.2-14.7v-57.5c0-10.6-1.5-13.5-6.7-14.7v-1.7h12.6l56.4,73v-51.5c0-14.7-3.1-18.3-8.9-19.9v-1.7h16.3v1.7c-4,1.2-5.2,4.1-5.2,14.7v74.9h-1.7l-60.8-79.1Z"/>
    <path class="st2" d="M882.6,147.8c3.9-1.2,5.2-4.1,5.2-14.7v-57.5c0-10.6-1.3-13.5-5.2-14.7v-1.7h60l1.4,16.8-1.4.4c-4.5-11.4-12.1-15.2-25.3-15.2h-19v39.1h16.5c14.7,0,18.4-3,20-8.8h1.5v19.5h-1.5c-1.5-5.8-5.3-8.8-20-8.8h-16.5v39.6c0,3.7,2.1,5.8,5.8,5.8h16.8c12.4,0,20.2-3.5,24.9-15.5l1.4.3-1,17.2h-63.6v-1.7Z"/>
    <path class="st2" d="M539.9,257.8l49.7-86.5h-22.3c-13,0-19,4.1-23.6,16h-1.4l2.1-18.1h57.5v1.7l-50,86.5h23.2c16,0,21.2-4.3,26.3-17.3h1.3l-2.3,19.3h-60.4v-1.7Z"/>
    <path class="st2" d="M596.7,257.8c3.6-1.2,6.8-3.7,10.8-13.5l25.4-62.9c.9-2.3.8-4-.3-6.1l-1.2-2.7,9.7-4.4,31.7,76.2c4,9.7,7.1,12.3,9.8,13.4v1.7h-20v-1.7c4-1.2,3-3.7-1.2-13.4l-7.9-19h-36.4l-7.6,18.8c-3.4,8.4-2.8,12.6,1.5,13.5v1.7h-14.6v-1.7ZM652.9,223.4l-17.7-42.4-17.2,42.4h34.8Z"/>
    <path class="st2" d="M661.7,272.1c0-2.7,2.6-5.9,7.1-5.9s6.7.6,12.9,1.9c3.1-1.9,6.8-5.2,6.8-18.2v-64.4c0-10.6-1.2-13.5-5.2-14.7v-1.7h20.8v1.7c-4,1.2-5.2,4.1-5.2,14.7v48.6c0,24.8-15.5,40.8-32.1,40.8s-5.2-.4-5.2-2.8Z"/>
    <path class="st2" d="M702,257.8c3.6-1.2,6.8-3.7,10.8-13.5l25.4-62.9c.9-2.3.8-4-.3-6.1l-1.2-2.7,9.7-4.4,31.7,76.2c4,9.7,7.1,12.3,9.8,13.4v1.7h-20v-1.7c4-1.2,3-3.7-1.2-13.4l-7.9-19h-36.4l-7.6,18.8c-3.4,8.4-2.8,12.6,1.5,13.5v1.7h-14.6v-1.7ZM758.3,223.4l-17.7-42.4-17.2,42.4h34.8Z"/>
    <path class="st2" d="M781,216.1c0-27.5,21.3-47.9,51.6-47.9s24,3.2,29,6.4l.5,15.3-1.3.3c-5-11.7-17.3-19.6-32.6-19.6s-36.4,13.7-36.4,40c-.1,24.2,14.6,47.5,41.4,47.5s24.8-7.4,29.8-21.3h1.4c0,.1-2.1,16.9-2.1,16.9-6.1,3.4-18.3,7-32.8,7-29.7,0-48.6-16.5-48.6-44.6Z"/>
    <path class="st2" d="M866.1,257.8l49.7-86.5h-22.3c-13,0-19,4.1-23.6,16h-1.4l2.1-18.1h57.5v1.7l-50,86.5h23.2c16,0,21.2-4.3,26.3-17.3h1.3l-2.3,19.3h-60.4v-1.7Z"/>
    <path class="st2" d="M931.6,257.8c3.9-1.2,5.2-4.1,5.2-14.7v-57.5c0-10.6-1.3-13.5-5.2-14.7v-1.7h20.9v1.7c-4,1.2-5.2,4.1-5.2,14.7v32.8l33.8-34.6c8.1-8.4,9.3-12.6,4.3-13.4v-1.2h17.9v1.7c-4.1,1.2-9.5,2.5-16.9,10.1l-27.5,28.1h3c19.2-1.4,22.2,5.5,31,27.6,6.6,16.5,9.4,21,13.5,21s1.4,0,2.2-.1v1.7c-2.2.6-5,.9-7.7.9-9.4,0-11.7-5.5-17.9-20.6-8.5-20.9-10.4-28.8-23.5-28.4h-2.6l-9.5,9.8v22.2c0,10.6,1.2,13.5,5.2,14.7v1.7h-20.9v-1.7Z"/>
    <path class="st2" d="M1000.1,214.2c0-26.4,18.6-46,45.9-46s45.7,15,45.7,46.6-24,46-45.7,46-45.9-14.6-45.9-46.6ZM1051.5,257.5c20.6,0,30.8-15,30.2-34.3-.9-27-17.8-52.1-40.9-52.1s-31.1,14.6-30.3,35.6c.9,25.9,17.9,50.8,41,50.8Z"/>
    <path class="st2" d="M1095.1,251.6l-.6-17.9,1.4-.3c5,13.5,14.8,25,32.8,25s19.2-6.7,19.2-17.2-15.9-18.8-26.7-23.2c-15.2-6.1-24.9-11.5-24.9-25.2s12.5-24.6,31.5-24.6,20.1,3.2,25.2,5.9l.5,15-1.3.4c-4.8-11.2-13.8-19.2-28.5-19.2s-19.3,6.1-19.3,17,13.3,17,24.2,21.5c14.3,5.7,27.7,11.4,27.7,25.9s-15,25.9-30.2,25.9-24.9-4.8-31-9.2Z"/>
    <path class="st2" d="M1160.5,257.8c3.9-1.2,5.2-4.1,5.2-14.7v-57.5c0-10.6-1.3-13.5-5.2-14.7v-1.7h20.9v1.7c-4,1.2-5.2,4.1-5.2,14.7v32.8l33.8-34.6c8.1-8.4,9.3-12.6,4.3-13.4v-1.2h17.9v1.7c-4.1,1.2-9.5,2.5-16.9,10.1l-27.5,28.1h3c19.2-1.4,22.2,5.5,31,27.6,6.6,16.5,9.4,21,13.5,21s1.4,0,2.2-.1v1.7c-2.2.6-5,.9-7.7.9-9.4,0-11.7-5.5-17.9-20.6-8.5-20.9-10.4-28.8-23.5-28.4h-2.6l-9.5,9.8v22.2c0,10.6,1.2,13.5,5.2,14.7v1.7h-20.9v-1.7Z"/>
    <path class="st2" d="M1236.6,257.8c3.9-1.2,5.2-4.1,5.2-14.7v-57.5c0-10.6-1.3-13.5-5.2-14.7v-1.7h20.9v1.7c-4,1.2-5.2,4.1-5.2,14.7v57.5c0,10.6,1.2,13.5,5.2,14.7v1.7h-20.9v-1.7Z"/>
  </g>
  <g>
    <path class="st2" d="M553.8,335.1h-11.9l-2.6,5.7h-2.4l9.8-21.4h2.2l9.8,21.4h-2.4l-2.6-5.7ZM553,333.3l-5.1-11.5-5.1,11.5h10.3Z"/>
    <path class="st2" d="M574.5,319.5h8.7c6.8,0,11.4,4.4,11.4,10.7s-4.6,10.7-11.4,10.7h-8.7v-21.4ZM583.1,338.9c5.7,0,9.3-3.6,9.3-8.7s-3.7-8.7-9.3-8.7h-6.3v17.5h6.3Z"/>
    <path class="st2" d="M629.1,319.5l-9.5,21.4h-2.2l-9.5-21.4h2.4l8.2,18.6,8.2-18.6h2.3Z"/>
    <path class="st2" d="M642.3,330.2c0-6.2,4.8-10.9,11.2-10.9s11.2,4.6,11.2,10.9-4.8,10.9-11.2,10.9-11.2-4.6-11.2-10.9ZM662.5,330.2c0-5.1-3.8-8.8-8.9-8.8s-9,3.8-9,8.8,3.8,8.9,9,8.9,8.9-3.8,8.9-8.9Z"/>
    <path class="st2" d="M680.1,330.2c0-6.3,4.8-10.9,11.2-10.9s5.9,1,7.8,3.1l-1.4,1.4c-1.7-1.8-3.9-2.5-6.3-2.5-5.2,0-9,3.8-9,8.8s3.9,8.9,9,8.9,4.6-.8,6.3-2.6l1.4,1.4c-1.9,2.1-4.7,3.1-7.8,3.1-6.4,0-11.2-4.6-11.2-10.9Z"/>
    <path class="st2" d="M729,335.1h-11.9l-2.6,5.7h-2.3l9.8-21.4h2.2l9.8,21.4h-2.4l-2.6-5.7ZM728.2,333.3l-5.1-11.5-5.1,11.5h10.3Z"/>
    <path class="st2" d="M747.5,330.2c0-6.3,4.8-10.9,11.2-10.9s5.9,1,7.8,3.1l-1.4,1.4c-1.7-1.8-3.9-2.5-6.3-2.5-5.2,0-9,3.8-9,8.8s3.9,8.9,9,8.9,4.6-.8,6.3-2.6l1.4,1.4c-1.9,2.1-4.7,3.1-7.8,3.1-6.4,0-11.2-4.6-11.2-10.9Z"/>
    <path class="st2" d="M783.5,319.5h2.3v21.4h-2.3v-21.4Z"/>
    <path class="st2" d="M818.4,335.1h-11.9l-2.6,5.7h-2.4l9.8-21.4h2.2l9.8,21.4h-2.4l-2.6-5.7ZM817.5,333.3l-5.1-11.5-5.1,11.5h10.3Z"/>
    <path class="st2" d="M874.5,341.2l-3-3.1c-1.8,1.9-4.2,2.9-7.1,2.9-4.2,0-7.2-2.2-7.2-5.4s1.5-4.4,5.4-6.7c-2.1-2.1-2.7-3.4-2.7-5.1,0-2.7,2.1-4.5,5.4-4.5s5,1.6,5,4.2-1.3,3.6-4.8,5.6l5.9,6c.6-1.1,1.1-2.5,1.4-4.1l1.8.5c-.4,1.9-1,3.6-1.9,4.9l3.1,3.1-1.3,1.4ZM870.3,336.8l-6.4-6.6c-3.4,2-4.5,3.3-4.5,5.2s2.1,3.8,5.2,3.8,4.3-.8,5.7-2.4ZM862,323.8c0,1.3.5,2.1,2.4,4.1,3.1-1.8,4.1-2.8,4.1-4.4s-1.1-2.7-3.1-2.7-3.4,1.2-3.4,2.9Z"/>
    <path class="st2" d="M910.2,330.2c0-6.3,4.8-10.9,11.2-10.9s5.9,1,7.8,3.1l-1.4,1.4c-1.7-1.8-3.9-2.5-6.3-2.5-5.2,0-9,3.8-9,8.8s3.9,8.9,9,8.9,4.6-.8,6.3-2.6l1.4,1.4c-1.9,2.1-4.7,3.1-7.8,3.1-6.4,0-11.2-4.6-11.2-10.9Z"/>
    <path class="st2" d="M943.9,330.2c0-6.2,4.8-10.9,11.2-10.9s11.2,4.6,11.2,10.9-4.8,10.9-11.2,10.9-11.2-4.6-11.2-10.9ZM964.1,330.2c0-5.1-3.8-8.8-8.9-8.8s-9,3.8-9,8.8,3.8,8.9,9,8.9,8.9-3.8,8.9-8.9Z"/>
    <path class="st2" d="M1001.5,319.5v21.4h-1.9l-13.7-17.3v17.3h-2.3v-21.4h1.9l13.8,17.3v-17.3h2.2Z"/>
    <path class="st2" d="M1018.6,338.2l.9-1.7c1.5,1.5,4.2,2.6,7,2.6,4,0,5.7-1.7,5.7-3.8,0-5.9-13.2-2.3-13.2-10.2s2.4-5.9,7.9-5.9,4.9.7,6.6,1.9l-.8,1.8c-1.8-1.2-4-1.8-5.9-1.8-3.9,0-5.6,1.7-5.6,3.9,0,5.9,13.2,2.3,13.2,10.1s-2.5,5.8-8,5.8-6.3-1.1-7.9-2.8Z"/>
    <path class="st2" d="M1051.4,331.7v-12.2h2.3v12.1c0,5.1,2.4,7.4,6.5,7.4s6.6-2.3,6.6-7.4v-12.1h2.2v12.2c0,6.1-3.3,9.3-8.8,9.3s-8.8-3.2-8.8-9.3Z"/>
    <path class="st2" d="M1088,319.5h2.3v19.4h12v2h-14.2v-21.4Z"/>
    <path class="st2" d="M1120.3,321.4h-7.5v-2h17.3v2h-7.5v19.4h-2.3v-19.4Z"/>
    <path class="st2" d="M1143.7,330.2c0-6.2,4.8-10.9,11.2-10.9s11.2,4.6,11.2,10.9-4.8,10.9-11.2,10.9-11.2-4.6-11.2-10.9ZM1163.9,330.2c0-5.1-3.8-8.8-8.9-8.8s-9,3.8-9,8.8,3.8,8.9,9,8.9,8.9-3.8,8.9-8.9Z"/>
    <path class="st2" d="M1198,340.8l-4.9-6.9c-.5,0-1.1,0-1.7,0h-5.7v6.8h-2.3v-21.4h8c5.4,0,8.7,2.7,8.7,7.3s-1.8,5.7-4.9,6.7l5.2,7.3h-2.5ZM1197.9,326.8c0-3.4-2.3-5.4-6.5-5.4h-5.7v10.7h5.7c4.3,0,6.5-2,6.5-5.3Z"/>
    <path class="st2" d="M1217.7,319.5h2.3v21.4h-2.3v-21.4Z"/>
    <path class="st2" d="M1252.5,335.1h-11.9l-2.6,5.7h-2.3l9.8-21.4h2.2l9.8,21.4h-2.4l-2.6-5.7ZM1251.7,333.3l-5.1-11.5-5.1,11.5h10.3Z"/>
  </g>
  <rect class="st1" x="538.6" y="287.7" width="718.5" height="4.2"/>
  <path class="st0" d="M462.1,208.5l-41.3-138.9c3.2-1.2,6-3.4,7.9-6.4,3.4,1.2,6.7,2.4,10,3.6l1.5-3.3c-47-26.5-109.9-43.7-179.6-46.2l-3.7,53.8c-2.3-.3-4.6-.7-6.9-1l4.6-65.8-12.1-4.3-12.1,4.3,4.6,65.8c-2.3.4-4.6.7-6.9,1l-3.7-53.8c-69.7,2.6-132.6,19.7-179.6,46.2l1.5,3.3c3.3-1.2,6.6-2.4,10-3.6,1.9,3,4.7,5.2,7.9,6.4L22.7,208.5c-7.7.4-15.2.9-22.7,1.5,15.5,25.3,41.7,42,71.4,42s55.9-16.7,71.4-42c-7.5-.6-15.1-1.1-22.8-1.5l-41.7-140.6c4.5-3,7.1-8.1,7-13.4,28.4-7.5,60.5-13,94.9-16,13.6-1.2,25.7,8.9,26.9,22.5l1.1,12.5c-14.2,1.4-28.9,2.3-45,2.6h-5.2c0,.1-.4,5.3-.4,5.3l-4.3,55.3c-.8,10.1-.4,19.7,1.1,28.7,5.1,29.4,21.5,55.7,47.7,76,8.2,6.4,16.1,11.2,22.5,14.7l3.6,39.6c1.7,18.3-10.6,35-28.7,38.9l-54.4,11.6v5.4h194.3v-5.4l-54.4-11.6c-18-3.8-30.3-20.5-28.7-38.9l3.6-39.5c6.5-3.5,14.4-8.3,22.6-14.7,26.1-20.3,42.6-46.6,47.6-76,1.5-8.9,1.9-18.6,1.1-28.7l-4.3-55.3-.4-5.1h-5.2c-16.1-.5-30.8-1.3-45-2.7l1.1-12.5c1.2-13.6,13.3-23.7,26.9-22.5,34.4,3,66.5,8.5,94.9,16,0,5.4,2.5,10.4,7,13.4l-41.7,140.6c-7.7.4-15.3.9-22.8,1.5,15.5,25.3,41.7,42,71.4,42s55.9-16.7,71.4-42c-7.4-.6-15-1.1-22.7-1.5ZM66,207.3c-10.2,0-20.4.3-30.3.6l32.1-137.4c.7,0,1.4.1,2.1,0l-3.9,136.6ZM107.1,207.9c-9.9-.4-20.1-.6-30.3-.6l-4-137c.6-.1,1.3-.3,1.9-.5,0,0,0,0,0,0l32.3,138.2ZM321.4,81.8l4.3,55.3c.7,9.1.5,18.3-1.1,27.3-11.7,68.5-82.1,93.6-82.1,93.6,0,0-70.6-25.1-82.3-93.6-1.5-9-1.8-18.2-1.1-27.3l4.3-55.3c31.9-.7,56-3.3,79-7.1,23,3.9,47.1,6.4,79,7.1ZM408,207.3c-10.2,0-20.3.3-30.3.6l32.3-138.2s0,0,0,0c.6.2,1.3.4,1.9.5l-4,137ZM418.7,207.3l-3.9-136.6c.7,0,1.4,0,2.1,0l32.1,137.4c-10-.4-20.1-.6-30.3-.6Z"/>
  <g>
    <path class="st2" d="M262.3,182.9h.5v13.5h-71.5v-.5c7.6,0,9.4-3.6,9.5-20.3v-64.6c-.2-16.7-2-20.3-9.5-20.3v-.3h29.4v.3c-7.3,0-9.2,3.3-9.5,18v85.9h22.9c17.7,0,23.5-2.1,28.3-11.8Z"/>
    <g>
      <path class="st2" d="M249.8,112.1v-.2h22.3l-42.7,80.8c8.9-.8,12.9-3.1,16.2-8.5l38.2-72.3v-1.5h-62.7v13.5h.3c5-9.7,10.8-11.8,28.5-11.8Z"/>
      <path class="st2" d="M287.3,202.8c-4.8,9.7-10.6,11.8-28.5,11.8h-29.2l8.8-16.6h-11.7l-8.8,16.6v1.7h69.9v-13.5h-.5Z"/>
    </g>
  </g>
</svg>