<?xml version="1.0" encoding="UTF-8"?>
<svg id="Layer_1" xmlns="http://www.w3.org/2000/svg" xmlns:xlink="http://www.w3.org/1999/xlink" version="1.1" viewBox="0 0 1603.8 542.6">
  <!-- Generator: Adobe Illustrator 30.1.0, SVG Export Plug-In . SVG Version: 2.1.1 Build 136)  -->
  <defs>
    <style>
      .st0 {
        fill-rule: evenodd;
      }

      .st0, .st1 {
        fill: #fff;
      }

      .st2 {
        fill: url(#linear-gradient2);
      }

      .st3 {
        fill: url(#linear-gradient1);
      }

      .st4 {
        fill: url(#linear-gradient);
      }
    </style>
    <linearGradient id="linear-gradient" x1="141.3" y1="271.3" x2="284.8" y2="271.3" gradientUnits="userSpaceOnUse">
      <stop offset="0" stop-color="#a1724f"/>
      <stop offset="1" stop-color="#edba9a"/>
    </linearGradient>
    <linearGradient id="linear-gradient1" x1="0" y1="244.5" x2="549.8" y2="244.5" xlink:href="#linear-gradient"/>
    <linearGradient id="linear-gradient2" x1="6.7" y1="467" x2="549.9" y2="467" xlink:href="#linear-gradient"/>
  </defs>
  <g>
    <path class="st1" d="M616.2,271.3v-.6c8.5,0,12.2-1.6,12.2-7.3v-108.8c0-5.7-3.7-7.5-12.2-7.5v-.4h36.6v.4c-8.5,0-12.2,1.8-12.2,7.5v114.7h24.2c22.8,0,27.1-12.2,30.9-24.8l1.6.6-6.3,26.2h-74.8Z"/>
    <path class="st1" d="M701.4,271.3v-.6c8.3,0,12-1.6,12-7.3v-108.8c0-5.7-3.7-7.5-12-7.5v-.4h36.4v.4c-8.5,0-12.2,1.8-12.2,7.5v108.8c0,5.7,3.7,7.3,12.2,7.3v.6h-36.4Z"/>
    <path class="st1" d="M741.9,271.3v-.6c8.5,0,12.2-1.6,12.2-7.3v-108.8c0-5.7-3.7-7.5-12.2-7.5v-.4h36.6v.4c-8.5,0-12.2,1.8-12.2,7.5v114.7h24.2c22.8,0,27.1-12.2,30.9-24.8l1.6.6-6.3,26.2h-74.8Z"/>
    <path class="st1" d="M827.1,271.3v-.6c8.3,0,12-1.6,12-7.3v-108.8c0-5.7-3.7-7.5-12-7.5v-.4h36.4v.4c-8.5,0-12.2,1.8-12.2,7.5v108.8c0,5.7,3.7,7.3,12.2,7.3v.6h-36.4Z"/>
    <path class="st1" d="M861.5,270.6c7.5,0,13-1.6,14.8-7.3l41.1-118.8,40.9,118.8c1.8,5.7,7.9,7.3,14.8,7.3v.6h-37.8v-.6c8.3,0,11.4-1.6,9.6-7.3l-13.4-39h-39l-13.4,39c-1.8,5.7,1.2,7.3,9.6,7.3v.6h-27v-.6ZM893.2,222.2h37.4l-18.7-54.5-18.7,54.5Z"/>
    <path class="st1" d="M971.1,146.6h25.2l44.7,91.1v-83.2c0-5.7-3.9-7.5-12.2-7.5v-.4h26.2v.4c-8.3,0-12,1.8-12,7.5v118.8l-58-117.8v107.8c0,5.7,3.7,7.3,12.2,7.3v.6h-26.2v-.6c8.3,0,12-1.6,12-7.3v-108.8c0-5.7-3.7-7.5-12-7.5v-.4Z"/>
    <path class="st1" d="M1071.4,263.3v-108.8c0-5.7-3.7-7.5-12.2-7.5v-.4h70.8l6.3,26.2-1.6.6c-3.9-12.6-8.1-24.8-30.9-24.8h-20.1v41.9h23.4c5.7,0,7.5-3.7,7.5-12h1.4v26.2h-1.4c0-8.3-1.8-12.2-7.5-12.2h-23.4v76.7h24.2c22.8,0,27-12.2,30.9-24.8l1.6.6-6.3,26.2h-74.8v-.6c8.5,0,12.2-1.6,12.2-7.3Z"/>
    <path class="st1" d="M1205.4,270.6c8.3,0,12-1.6,12-7.3v-108.8c0-5.7-3.7-7.5-12-7.5v-.4h70.6l6.3,26.2-1.6.6c-3.9-12.6-8.1-24.8-30.9-24.8h-20.1v41.9h23.4c5.7,0,7.5-3.7,7.5-12h1.6v26.2h-1.6c0-8.3-1.8-12.2-7.5-12.2h-23.4v70.8c0,5.7,3.7,7.3,12.2,7.3v.6h-36.4v-.6Z"/>
    <path class="st1" d="M1298.1,255.2c4.3,0,7.7,3.5,7.7,7.9s-3.5,7.7-7.7,7.7-7.7-3.5-7.7-7.7,3.5-7.9,7.7-7.9Z"/>
    <path class="st1" d="M616.2,433.2l57.2-122.6h-18.5c-22.8,0-27,12.2-30.9,24.8l-1.6-.6,6.3-26.2h58.6v2l-56.1,120.6h21.6c22.8,0,27.1-12.2,31.1-24.8l1.4.6-6.1,26.2h-62.8Z"/>
    <path class="st1" d="M685.1,432.6c7.5,0,13-1.6,14.8-7.3l41.1-118.8,40.9,118.8c1.8,5.7,7.9,7.3,14.8,7.3v.6h-37.8v-.6c8.3,0,11.4-1.6,9.6-7.3l-13.4-39h-39l-13.4,39c-1.8,5.7,1.2,7.3,9.6,7.3v.6h-27.1v-.6ZM716.9,384.2h37.4l-18.7-54.5-18.7,54.5Z"/>
    <path class="st1" d="M808,400.8c4.9,0,8.1,3.1,8.3,7.5.4,7.9-6.3,9.8-7.3,13.6-1.4,5.7,6.9,11.2,15.7,11.2s16.1-6.5,16.1-22.6v-92.5c0-5.7-4.3-9.2-19.3-9.2v-.4h43.5v.4c-8.3,0-12,1.8-12,7.5v88.1c0,16.1-11.4,30.7-28.3,30.7s-25.8-11-25.8-23.8,4.3-10.6,9.2-10.6Z"/>
    <path class="st1" d="M858.8,432.6c7.5,0,13-1.6,14.8-7.3l41.1-118.8,40.9,118.8c1.8,5.7,7.9,7.3,14.8,7.3v.6h-37.8v-.6c8.3,0,11.4-1.6,9.6-7.3l-13.4-39h-39l-13.4,39c-1.8,5.7,1.2,7.3,9.6,7.3v.6h-27v-.6ZM890.6,384.2h37.4l-18.7-54.5-18.7,54.5Z"/>
    <path class="st1" d="M964.4,370.7c0-37.2,24.6-64.3,60.2-64.3s29.1,10.2,32.9,8.5c2.6-.8.2-9.2.2-9.2l1.6-.6,9.8,29.5-1.8.8s-10.4-26-40.7-26-50,23.6-50,61.2,21.8,61.4,50,61.4,42.9-26.4,42.9-26.4l1.6,1.2s-13,28.3-46.6,28.3-60.2-27.1-60.2-64.5Z"/>
    <path class="st1" d="M1075.2,433.2l57.2-122.6h-18.5c-22.8,0-27,12.2-30.9,24.8l-1.6-.6,6.3-26.2h58.6v2l-56.1,120.6h21.6c22.8,0,27.1-12.2,31.1-24.8l1.4.6-6.1,26.2h-62.8Z"/>
    <path class="st1" d="M1150.3,308.9v-.4h36.6v.4c-8.5,0-12.2,1.8-12.2,7.5v44.5l40.5-44.5c5.3-5.7,3.3-7.5-5.3-7.5v-.4h27.5v.4c-7.5,0-13.8,1.8-19.1,7.5l-25.6,28.3,10,20.1c12.6,26,29.9,65.3,71.2,65.3s44.1-15.3,44.1-15.3l1,1.2s-18.9,19.9-52.3,19.9-51.9-16.5-72.2-57.8l-11.4-23.2-8.3,9.4v60.6c0,5.7,3.7,7.5,12.2,7.5v.6h-36.6v-.6c8.5,0,12.2-1.8,12.2-7.5v-108.6c0-5.7-3.7-7.5-12.2-7.5ZM1281.9,305.2c29.1,0,47.2,22.2,47.2,47.4s-18.1,47.4-47.2,47.4-47.4-22.2-47.4-47.4,18.3-47.4,47.4-47.4ZM1247.3,352.6c0,27.9,11.6,45.8,34.6,45.8s34.4-17.9,34.4-45.8-11.4-45.8-34.4-45.8-34.6,17.9-34.6,45.8Z"/>
    <path class="st1" d="M1341,379.7c4.3,27.9,19.7,53.5,43.1,53.5s23.8-9.2,23.8-26.4c0-39-62.6-40.1-62.6-75s10.2-25.2,31.1-25.2,23,8.1,25.8,7.1c2-.6.4-7.9.4-7.9l1.6-.4,5.7,29.5-2,.8s-8.7-27-29.5-27-20.9,8.3-20.9,19.1c0,28.3,62.6,32.7,62.6,75s-12,32.5-37,32.5-35.2-22.2-39.7-20.7c-2.8.6-2.8,7.5-2.8,7.5h-1.4v-42.1l1.8-.2Z"/>
    <path class="st1" d="M1426.3,308.5h36.4v.4c-8.3,0-12,1.8-12,7.5v44.5l40.5-44.5c5.1-5.7,3.1-7.5-5.3-7.5v-.4h27.5v.4c-7.5,0-14,1.8-19.1,7.5l-25.8,28.3,39.7,80.5c2.8,5.7,7.3,7.3,15.9,7.3v.6h-38.8v-.6c7.7,0,11.2-1.6,8.3-7.3l-34.4-70-8.3,9.2v60.8c0,5.7,3.7,7.3,12,7.3v.6h-36.4v-.6c8.3,0,12.2-1.6,12.2-7.3v-108.8c0-5.7-3.9-7.5-12.2-7.5v-.4Z"/>
    <path class="st1" d="M1521.8,433.2v-.6c8.3,0,12-1.6,12-7.3v-108.8c0-5.7-3.7-7.5-12-7.5v-.4h36.4v.4c-8.5,0-12.2,1.8-12.2,7.5v108.8c0,5.7,3.7,7.3,12.2,7.3v.6h-36.4Z"/>
  </g>
  <g>
    <path class="st1" d="M623.6,489l7,20.3c.4,1.1.9,1.6,1.4,1.9v.2h-4.8l-3.3-9.5h-6.5c-1.4,5.1-1.3,8.3.5,9.4v.2h-5.2l7.3-20.9-.5-1.4h4.2ZM617.9,500.5h5.6l-2.8-8.1-2.8,8.1Z"/>
    <path class="st1" d="M658.3,489.2v-.2h6.8c6.9,0,11.3,4.3,11.3,10.9s-4.6,11.4-11.7,11.4h-6.4v-.2c.6-.5.8-1.1.8-2.1v-17.7c0-1.1-.2-1.7-.8-2.1ZM664.7,510c5,0,7.6-3.1,7.6-8.7s-3.4-11-8.4-11h-.8v19.7h1.6Z"/>
    <path class="st1" d="M702.1,491.1c-.4-1.1-.9-1.6-1.4-1.9v-.2h4.8l6.6,18.9,3.1-8.9c1.6-5.4,1.5-8.8-.3-9.9v-.2h5.2l-7.3,20.9.5,1.4h-4.2l-7-20.3Z"/>
    <path class="st1" d="M755.9,488.7c6.4,0,11.2,4.9,11.2,11.5s-4.8,11.5-11.2,11.5-11.2-4.9-11.2-11.5,4.8-11.5,11.2-11.5ZM757.3,510.2c3.5,0,5.8-3.1,5.8-8.1s-3.7-12-8.5-12-5.8,3.1-5.8,8.1,3.7,12,8.5,12Z"/>
    <path class="st1" d="M810,494.9h-.2c-.6-3.1-2.8-4.9-5.9-4.9s-6.5,2.6-6.5,8.4,3.3,11,8,11,4.6-1.2,5.5-3.1l.5.3c-1.2,3-4.3,5-7.9,5-5.7,0-10.1-5-10.1-11.4s4.8-11.6,11.1-11.6,4.2.5,5.9,1.3l-.4,4.9Z"/>
    <path class="st1" d="M848,489l7,20.3c.4,1.1.9,1.6,1.4,1.9v.2h-4.8l-3.3-9.5h-6.5c-1.4,5.1-1.3,8.3.5,9.4v.2h-5.2l7.3-20.9-.5-1.4h4.2ZM842.2,500.5h5.6l-2.8-8.1-2.8,8.1Z"/>
    <path class="st1" d="M897.3,494.9h-.2c-.6-3.1-2.8-4.9-5.9-4.9s-6.5,2.6-6.5,8.4,3.3,11,8,11,4.6-1.2,5.5-3.1l.5.3c-1.2,3-4.3,5-7.9,5-5.7,0-10.1-5-10.1-11.4s4.8-11.6,11.1-11.6,4.2.5,5.9,1.3l-.4,4.9Z"/>
    <path class="st1" d="M925.4,489.2v-.2h5.6v.2c-.6.5-.8,1.1-.8,2.1v17.7c0,1.1.2,1.7.8,2.1v.2h-5.6v-.2c.6-.5.8-1.1.8-2.1v-17.7c0-1.1-.2-1.7-.8-2.1Z"/>
    <path class="st1" d="M968.2,489l7,20.3c.4,1.1.9,1.6,1.4,1.9v.2h-4.8l-3.3-9.5h-6.5c-1.4,5.1-1.3,8.3.5,9.4v.2h-5.2l7.3-20.9-.5-1.4h4.2ZM962.4,500.5h5.6l-2.8-8.1-2.8,8.1Z"/>
    <path class="st1" d="M1051.5,490.3l-1.4,4.6h-.2c-.5-3.1-1.9-4.9-3.8-4.9s-2.6,1.1-2.6,3.4.9,4.4,2.6,7.3l2.4-4.3c3.5,0,5.4,1.6,5.4,4.3s-1.1,4.1-3.1,6.1c1.3,1.3,2.6,1.9,3.8,1.9s1.7-.5,2-1.4h.3c-.2,2.7-1.7,4.3-4.2,4.3s-3.2-.7-4.8-2c-1.3,1.3-3.2,2-5.3,2-4.3,0-7.4-2.8-7.4-6.1s2-5.1,5.4-6.1c-.8-1.9-1.2-3.7-1.2-5.1,0-3.4,2.4-5.7,6.4-5.7s4,.6,5.6,1.6ZM1041.3,500.5c-1.2.6-1.7,1.8-1.7,3.6,0,3.4,1.8,5.9,4.7,5.9s2.1-.4,3-1.1c-2.4-2.2-4.5-5.5-5.9-8.4ZM1052.1,502c0-1.5-1-2.3-2.8-2.3s-2.2.4-3,1.2c1.1,1.8,2.3,3.6,3.7,5.2,1.3-1.5,2-2.8,2-4Z"/>
    <path class="st1" d="M1132.5,494.9h-.2c-.6-3.1-2.8-4.9-5.9-4.9s-6.5,2.6-6.5,8.4,3.3,11,8,11,4.6-1.2,5.5-3.1l.5.3c-1.2,3-4.3,5-7.9,5-5.7,0-10.1-5-10.1-11.4s4.8-11.6,11.1-11.6,4.2.5,5.9,1.3l-.4,4.9Z"/>
    <path class="st1" d="M1171,488.7c6.4,0,11.2,4.9,11.2,11.5s-4.8,11.5-11.2,11.5-11.2-4.9-11.2-11.5,4.8-11.5,11.2-11.5ZM1172.4,510.2c3.5,0,5.8-3.1,5.8-8.1s-3.7-12-8.5-12-5.8,3.1-5.8,8.1,3.7,12,8.5,12Z"/>
    <path class="st1" d="M1212.4,511.2v.2h-3.6v-.2c.8-.6,1.2-1.7,1.2-3.9v-14.3c0-2.1-.3-3.3-1.2-3.9v-.2h4.5l10.5,17v-12.9c0-2.1-.3-3.3-1.2-3.9v-.2h3.6v.2c-.8.6-1.2,1.7-1.2,3.9v18.3h-2.6l-11.2-18.1v14.1c0,2.1.3,3.3,1.2,3.9Z"/>
    <path class="st1" d="M1260.4,488.7c2.3,0,4.5.6,6.2,1.6l-1.4,4.6h-.2c-.9-3.2-2.6-4.9-5.2-4.9s-3.6,1.3-3.6,3.2c0,5.2,10.7,4.9,10.7,12.2s-3,6.3-7.9,6.3-4.5-.6-6.2-1.6l1.4-4.6h.2c.9,3.2,2.7,4.9,5.3,4.9s3.8-1.3,3.8-3.4c0-5.4-10.6-5.1-10.6-12.2s2.9-6.1,7.5-6.1Z"/>
    <path class="st1" d="M1294.7,491.7c.3-1.4.2-2.3-.2-2.6v-.2h5.4v.2c-1.5.9-2.3,10.8-2.3,12.6,0,5.6,2.4,8.4,6,8.3h1.2c.6,0,.8-.4.8-1.1v-17.7c0-1.1-.2-1.7-.8-2.1v-.2h5.6v.2c-.6.5-.8,1.1-.8,2.1v17.7c0,1.1.2,1.7.8,2.1v.2h-3.8c-1.9,0-3.1.3-4.7.3-5.2,0-8.5-3.1-8.5-9.8s.5-6,1.3-10.2Z"/>
    <path class="st1" d="M1337.4,489.2v-.2h5.6v.2c-.6.5-.8,1.1-.8,2.1v18.7h2c3.6,0,6-1.3,7.1-3.9h.2l-.3,5.3h-13.7v-.2c.6-.5.8-1.1.8-2.1v-17.7c0-1.1-.2-1.7-.8-2.1Z"/>
    <path class="st1" d="M1381.1,490.3c-3.1,0-5.1,1.1-6,3.6h-.2l.5-4.9h15.4l.5,4.9h-.2c-1-2.5-2.9-3.6-6-3.6v18.7c0,1.1.2,1.7.8,2.1v.2h-5.6v-.2c.6-.5.8-1.1.8-2.1v-18.7Z"/>
    <path class="st1" d="M1427.7,488.7c6.4,0,11.2,4.9,11.2,11.5s-4.8,11.5-11.2,11.5-11.2-4.9-11.2-11.5,4.8-11.5,11.2-11.5ZM1429.1,510.2c3.5,0,5.8-3.1,5.8-8.1s-3.7-12-8.5-12-5.8,3.1-5.8,8.1,3.7,12,8.5,12Z"/>
    <path class="st1" d="M1465.5,489.2v-.2h7.9c5.4,0,8.2,1.9,8.2,5.6s-2.2,5.5-5.9,6.6l5.2,8.1c.8,1.1,1.3,1.7,1.9,1.9v.2h-1.7c-2.5,0-4.1-.8-5.3-2.7l-4.4-6.8c-.3,0-.6,0-.9,0h-.4v7.2c0,1.1.2,1.7.8,2.1v.2h-5.6v-.2c.6-.5.8-1.1.8-2.1v-17.7c0-1.1-.2-1.7-.8-2.1ZM1470.6,500.5c4.5,0,6.9-1.7,6.9-5s-2.3-5.2-5.8-5.2h-1.4v10.2h.3Z"/>
    <path class="st1" d="M1509.2,489.2v-.2h5.6v.2c-.6.5-.8,1.1-.8,2.1v17.7c0,1.1.2,1.7.8,2.1v.2h-5.6v-.2c.6-.5.8-1.1.8-2.1v-17.7c0-1.1-.2-1.7-.8-2.1Z"/>
    <path class="st1" d="M1552,489l7,20.3c.4,1.1.9,1.6,1.4,1.9v.2h-4.8l-3.3-9.5h-6.5c-1.4,5.1-1.3,8.3.5,9.4v.2h-5.2l7.3-20.9-.5-1.4h4.2ZM1546.2,500.5h5.6l-2.8-8.1-2.8,8.1Z"/>
  </g>
  <g>
    <path class="st0" d="M439.5,78.4h33.4c1.2-3.8,3.1-7.3,5.6-10.3h-44.6c2.5,3,4.4,6.5,5.6,10.3"/>
    <rect class="st1" x="461.3" y="83.8" width="10.3" height="408"/>
    <rect class="st1" x="440.8" y="83.8" width="10.3" height="408"/>
    <rect class="st1" x="409.8" y="47.5" width="95.4" height="10.3"/>
  </g>
  <g>
    <path class="st4" d="M282,365.4l2.8-44.3h-1.4c-9.1,22.2-28.8,33.2-59.5,33.2h-38.5l96.7-177.2h-133.8l-4.2,41.5h1.4c7.8-20.8,26.6-30.5,59.5-30.5h33l-96.7,177.2h140.7Z"/>
    <path class="st3" d="M548.7,0l1.1,489h-31.9V32.5H39.3l.7,298.5v23.3h17c30.7,0,50.4-11.1,59.5-33.2h1.4l-2.8,44.3H0v-1.4c4.2-3.2,6.2-7.3,6.7-13.9V0"/>
    <polygon class="st2" points="469.9 511.3 469.9 511.2 39.3 511.2 39.3 391.4 6.7 391.4 6.7 541.9 549.9 542.6 549.8 511.3 469.9 511.3"/>
  </g>
  <rect class="st1" x="441" y="498.1" width="156.6" height="4.8"/>
</svg>