<?xml version="1.0" encoding="UTF-8"?>
<svg id="Layer_1" xmlns="http://www.w3.org/2000/svg" xmlns:xlink="http://www.w3.org/1999/xlink" version="1.1" viewBox="0 0 1603.8 542.6">
  <!-- Generator: Adobe Illustrator 30.1.0, SVG Export Plug-In . SVG Version: 2.1.1 Build 136)  -->
  <defs>
    <style>
      .st0 {
        fill-rule: evenodd;
      }

      .st0, .st1, .st2, .st3 {
        fill: #fff;
      }

      .st4 {
        fill: url(#linear-gradient2);
      }

      .st5 {
        fill: url(#linear-gradient1);
      }

      .st6 {
        fill: url(#linear-gradient);
      }

      .st1 {
        font-family: Erstoria-Regular, Erstoria;
        font-size: 34px;
        letter-spacing: .8em;
      }

      .st3 {
        font-family: Novante-Regular, Novante;
        font-size: 203.4px;
      }
    </style>
    <linearGradient id="linear-gradient" x1="141.3" y1="271.3" x2="284.8" y2="271.3" gradientUnits="userSpaceOnUse">
      <stop offset="0" stop-color="#a1724f"/>
      <stop offset="1" stop-color="#edba9a"/>
    </linearGradient>
    <linearGradient id="linear-gradient1" x1="0" y1="244.5" x2="549.8" y2="244.5" xlink:href="#linear-gradient"/>
    <linearGradient id="linear-gradient2" x1="6.7" y1="467" x2="549.9" y2="467" xlink:href="#linear-gradient"/>
  </defs>
  <text class="st3" transform="translate(614.2 271.5)"><tspan x="0" y="0">LILIANE F.</tspan><tspan x="0" y="161.9">ZAJACZKOSKI</tspan></text>
  <text class="st1" transform="translate(620.4 511.7)"><tspan x="0" y="0">ADVOCACIA &amp; CONSULTORIA</tspan></text>
  <g>
    <path class="st0" d="M439.5,78.4h33.4c1.2-3.8,3.1-7.3,5.6-10.3h-44.6c2.5,3,4.4,6.5,5.6,10.3"/>
    <rect class="st2" x="461.3" y="83.8" width="10.3" height="408"/>
    <rect class="st2" x="440.8" y="83.8" width="10.3" height="408"/>
    <rect class="st2" x="409.8" y="47.5" width="95.4" height="10.3"/>
  </g>
  <g>
    <path class="st6" d="M282,365.4l2.8-44.3h-1.4c-9.1,22.2-28.8,33.2-59.5,33.2h-38.5l96.7-177.2h-133.8l-4.2,41.5h1.4c7.8-20.8,26.6-30.5,59.5-30.5h33l-96.7,177.2h140.7Z"/>
    <path class="st5" d="M548.7,0l1.1,489h-31.9V32.5H39.3l.7,298.5v23.3h17c30.7,0,50.4-11.1,59.5-33.2h1.4l-2.8,44.3H0v-1.4c4.2-3.2,6.2-7.3,6.7-13.9V0"/>
    <polygon class="st4" points="469.9 511.3 469.9 511.2 39.3 511.2 39.3 391.4 6.7 391.4 6.7 541.9 549.9 542.6 549.8 511.3 469.9 511.3"/>
  </g>
  <rect class="st2" x="441" y="498.1" width="156.6" height="4.8"/>
</svg>