<?xml version="1.0" encoding="UTF-8"?>
<svg id="Object" xmlns="http://www.w3.org/2000/svg" version="1.1" viewBox="0 0 170.5 163.9">
  <!-- Generator: Adobe Illustrator 30.0.0, SVG Export Plug-In . SVG Version: 2.1.1 Build 123)  -->
  <defs>
    <style>
      .st0 {
        fill: #1c1d1d;
        fill-rule: evenodd;
      }
    </style>
  </defs>
  <path class="st0" d="M78.2,37.8h12.2v98.5h-12.2V37.8ZM143.1,14.1l-25.1,57.4h7.2l18-40.7,18,40.7h7.2l-25.1-57.4ZM143.1,104.1c-15.1,0-27.4-12.3-27.4-27.4h54.8c0,15.1-12.3,27.4-27.4,27.4h0ZM84.3,6c-7.1,0-12.8,5.6-13,12.6l-45.8,12.2,1.9,7.2,45.8-12.2c2.2,3.7,6.4,6.2,11.1,6.2,7,0,12.7-5.7,12.9-12.6l45.8-12.2-1.9-7.2-45.8,12.2c-2.2-3.8-6.4-6.2-11-6.2h0ZM27.4,44.9L2.2,102.4h7.2l18-40.7,18,40.7h7.2l-25.1-57.4ZM27.4,134.9c-15.1,0-27.4-12.3-27.4-27.4h54.8c0,15.1-12.3,27.4-27.4,27.4h0ZM50,163.9c4-12.8,18.1-22.2,35-22.2s31,9.5,35,22.2H50Z"/>
</svg>